<mxfile host="app.diagrams.net" agent="Mozilla/5.0 (Macintosh; Intel Mac OS X 10_15_7) AppleWebKit/537.36 (KHTML, like Gecko) Chrome/129.0.0.0 Safari/537.36" version="24.7.17">
  <diagram name="Page-1" id="vh6TBuDRz1pc2DbatK71">
    <mxGraphModel dx="855" dy="492" grid="1" gridSize="10" guides="1" tooltips="1" connect="1" arrows="1" fold="1" page="1" pageScale="1" pageWidth="827" pageHeight="1169" math="0" shadow="0">
      <root>
        <mxCell id="0" />
        <mxCell id="1" parent="0" />
        <mxCell id="-l0L1RNfN-XOFM-DuLYb-1" value="" style="rounded=1;whiteSpace=wrap;html=1;strokeColor=#007FFF;" vertex="1" parent="1">
          <mxGeometry x="370" y="120" width="280" height="170" as="geometry" />
        </mxCell>
        <mxCell id="-l0L1RNfN-XOFM-DuLYb-2" value="" style="shape=image;verticalLabelPosition=bottom;labelBackgroundColor=default;verticalAlign=top;aspect=fixed;imageAspect=0;image=data:image/png,iVBORw0KGgoAAAANSUhEUgAAAMwAAADACAMAAAB/Pny7AAAAclBMVEX///8ybebT3PgVYeUua+YpaeUlZ+UgZeUAXOQbY+Xt8fz8/f/2+P4AWOPe5frr7/zl6/vZ4fkAVOPBz/ZMfOhXg+mMp+91l+yetPHJ1fevwfNEd+diiuqqvfM6cudqj+uFou6UrfC6yfV9nO0ATOIAPODAtXW8AAAR/ElEQVR4nO1d6ZajOg4u8A6GhABhJyGpef9XHLJigw02obq6z8z3555bHYhly9qlfH39H/+z8EK3R7T77XV8Du6W1wRTyqqscflvr+Yj8OJYUYacHpDQqiv+XXL8+FqROyUPIFZdY/+3V7UO8anCAil3ckh1in97XSsQJw4akXInBzvJv0ZOXDEFJS9ua4vfXp85eNwGWlLu5ARt/G+Igv0lmSflQU512f/1siA0IeVBTlKGfzU5UZOakfIgJ22iv5acKE8BNiXlBgzSzv3tVSvhHhNsRcr9dEhy/vvIibJeQ0JbWm6ng6vT30VOWEO8hpLH6WBUR79NwRtRTa35a3Q8NP0rToe7dUA+I+V+PEH66yb1zj1tQcoNOKiL/W+SUmxGyg3kUMe/Rc6+zMCGpNyA6akJf4OU/IQ3JuUGQur8T4u2XZd+IIxngVF6/JOnw88V/FAYzwAiVF3/1N3xznCdsrcgB8PsT5CzP1NmuzZMGLEln9DTDzMbD88UWJLioLbzvsLM+jBJcIp+To/yaAUpPR4BjKPtgd7IyVzvR0jxijNYQwo+P57310g/Rq/x9nFd73KGa0hxHPAKxZxWqSVGsnJbWcDLzLHnkgfo6x53694ACTrl25HjN3XLVsviNzErLs0TxEmPG92dpnI+Ufb05amsY7MHMKq6z8nxG4cYx1uUYPnzVR+9BiKCPjwdL2f0U12P0se7ePDhiyCgH1g5/AI/JqVfQ/t4W7ROGMrkgGbl6XjnwxYWGGwfarz4nJgeQb3qcHj2KV+88Pj6crUwkwCSNdQcN9nJGx7iLN/IlWMne067bOewPG2zrfxS0tnSwuvPBLKIy/2N162IQZVtjO3SbuZ+wQcx2WYRA3K0JOa6zXW9ARbbnoyDLSXavt7syqDk8cp4M4GCKrsUb5FsxmX05S12W1EDUWNFTLPBwfTmFGPkZQB8fe0ODJBN4lOgs0q4rfQ9BEoIQOnp3OXlmyV4nh+zumLgY4KwVehm95no6U3C6tpc3P0kHuGFxSU/OZR8RA9KbISzm3ygZQhtj/FMRZa/dy9XTD/4BkhsJEC8fudYUMfTExnDC8vkgwQCaCwuTUN1r0GAznnQ5DsLzWJdPnfr71kxg/ReITmb22feWXf/SdLEnTbOjOnVKmq30+cPe1GYXivdvqHUPNoZaq4MRA8bTy0eELIPqIY1UkY6Icpue1/ojCpgXkrkargZPpX513n6AYjSNaVX/qVWVHJB8gwcXDQroRfjb7horgx+W3iTsBFpu5WRx13XjlcMwdvK1/A7O5ryM9dFuPAr0PLljz5C6w8q4uLTaPPoYBZr2Aynplu3SzViBJ0Ggs+CpQWDs1Ylm8jQfScFTkA3bLtOElHT67kHmv2A7fAK7/r+FKSN+tC9ornWw/82Wa7JJvOLIIZFWmKdLgpMOaHQRjLQaThdL3ueDcbKF0ddmlS9OTD8pQucNkmPSkEUw+eyoUiLp7VETG1Nf8ZWx4JV5F/vrI4dxep402J0k7qoHf6Y01u+EmF4VJxP0d45CgHBw9+nWq1KUjMJwHVX5v5l9DocTs4IJgqPPDoFAD6YEKfDn8vXPWdB6k42NkoJwtgZTtkvyYyFcDAjxpuPlwGav8nZu3E6PhceZYLVRYQ7Ew9CCx2mpTJRmsTl+9W8SGbDqQcztekeZonpL18yU9UfdkCUQCQTXizuEg6y8emINY5uFsz7hyD/MkG+6N4i2mkkI48rWWews7BY+cgBa3QCfVcupulE/p2B/tYJC5lw1x3hcVykCYSwUDg+cnpS84qbGQTsAyNitOa/CNJeprKxSCdmrsgNuwn/kqpUSNhLYuLpHExc5/3SlXmA1RNOu7TTM6Xl8O8KyYKdaULMNaKld9AMiNE7ZhLg2A/3G1WgQjRvPcWbIb6OqWnMgink9LUM09QjkeOKfvOt+lQg3ApP6boEo6i+Zxj6hMCAGNMgE27lujB+VLm5gXB+XqXyXGrZ/uWdGZv3jL58afamxLBy/Oglmd6Zg3Cz+PTfUZtPdKfiLUqQyQImMM3LEEUgLppW+xyEfefjAHZ/LAob1TSaiq+LxFzN4lnQUTmuvX05OthAuBB8FDvAuFNxys7w1r4i8jMwDP+RTG3RFLUssqhIjBz0oZVCVd1QOkZRO9guXZq9WZIJtjrnaN8BcTuwSIzoa0N61cVYJ+yow1JUI26NXoP0Qp7H7WBXoVYkRnCUCCn1xmppRgtayqAdDUPAwqZMeCUcAhQ4EZbsDyYsnYS+ffE1ChmuAF5SmyejE0aVsIpjNrFI8pfKwaJD6L+8MwTO42Pxc8Ej/8rNVpHOX5r9nJcp7IlgPhatomqit6/ud49JcuLyMM5wO2H2XlWKho9vpOzgQjowNjtgNpwFP9LeIZgYnfyKbrtLJas4uvnBGJ8mtHvHQE67muWH0byDlhvJMiz4wu5NTwJn6qw1CQBY5kDeVIwk05qE3b2yhQr7PHF91Hs6rzYVQWQFhK/l3f0eEEVTbNR14xokv8jz6QefAoPUAksaqRrFGYtbZHb/DwPveM9vRdN7YAq3fu4gFSScUWoaJXNRDbP0HxbsiMvL4UKtTTZLQPH2xdh5eIMRn0E0Z2uaGRJ08PH89M2XCHVr6sMLQeSAgRhutBIwVxO0HJi54TA4Mp6wgZBNtMcyYjE7I3hy/tlkKWzipg7wzCQiHdYs+9i0tiwF88tAPAAxyKbLEUlAqb5xKDJSmaLUGT0AEquME89HN0MIH4VGdYjqmP0dsVEnhRiAH19TtmiWi7Qcx48LfuneSH1TfYimNArMCNGj6faR1rh4YnedPA2GV3tGRSJMm0PXZ8wlCDGKcnpLkdbTGSHMpg/j4dJwI02DtTl0wyIzIQOnigqhaqTJ+CXucRnxn5cpdm4ogRpM7HkQHSO4Zg4eHpalrEpjI58pa6sebSLr1EuruBMQCRlAIwlAdXwQG+0FqgaJpZQXoiL/uuXLELwByK5Uo65lGE69MFoN0GhqMy4Vs9a+UuAwSS277zXJGRW1s4EGFjXjE6xRbZ7ZlREe301FOURMev1OCEDLSuGsahBEg7kamYVWqFoXGMYyyRAbDuXlQIydKpUrNWpBROBK+uImqZxxwycc9EZk5icGmhSPWe2/QIwrLAVi0qbZuC+Zi5mrSXV11GRpi6XZVAMr6qqRRgC5ylj3zaxMiZjnSnveAknWjaXvDWKAFCvS3ftLlyXsnW+zJ0b10p6Y2iwqKtyZBzEEgPRcFmqrTBRaKFN+xHPLY4opWUeMaPYO4IZlx2iQZhFyGGV1Hus7XaPhQQi13geP4iZDlCH7OyM6JAPMYgiSngkP7FpG8xWZokyaM3T8XXg5OweBGMNuBKWtaZj+66l5Xw0ee3zJV07fYoXRJf+Ae9GgNF3DZmixbOIN487DwK6toKH3SDo5TAOfszCzAHocFA8bchmEgW37SlNhhCzqXZ/EBGYno8qhT5P0alrYpEpkGX6zouYxylSmqAJ0GqJZ9rkhwow5Pz1yQECJmEnbAJlK/BnHDvaaBDBYJadrt3EH+Cx4ea1bRgEjZDz2UcbkSX2cilbXrinLS+GGZny/jxY/ty9cE8bjUVE2+fF6qquZVl42/jpPdzCQNNHOuO42jPNzdkprVUnMAL+pk/R0PTexSa29z3f7MCqaSqfVJyEaXTW0AzRZ1DF2RXM+3aoyMcGYsNlAQMwIQv3nnKqn6ViajZbwo0xXbn0effSo8WUMopR+GHd12/ZCG71r4clsWvsd0+1lyu02tG3dXZYFS6ixHic5dJ1VRxeqB+MaBeDWfQXlSzdbDeZIXwZv24ABDfB1gQk07ANlP+lrp7PqJGJ8vi+vabffDXxRfCvvpZj0nEITBaaCIeoX4RFX595eEp7TJSlG0a1Y2w7x9n18L8yTA2UYgO8hNuGlyt1SKDJxUWrmF6vIw/8EoHeTAnoVWotK9SLH5ngOdUXmzyiYH5Yn+m6tIgM/KJUtxLN3misrJ9lJOIV3EoDRtiseb4t1BZejHLq+YoYkjRu6lzwVZ5mRIe6wVx2NLgA0uwNAZBahPhKC9taNV+SJLkiBa+nrMn1gBoG0TpFUQ+Kgwez2VX3+QLZFw2Y0gm2viB4ysRBAruCHjDrpzJxhLBcEZHPmApoM+4RCeHxfT6hhsrUfJ44jV9vyfHI0EIkHM7npcM67GRFztmw0RELSupx8j9x3xG89CwRJ9BUT60kq2nDtel6RHAls7GiR2j75OASO5XzWI7kOJNt2kqOTn7EcRjCqPXVt2//JWXh4xBRyHJY/C1G/pWszKjiEUPTktX1zarz6+t4wq5kZICUuGqT9pyGmiSWjYy976USqtTjZLQaOSl+/Stt2VqmFTWIaIjVrDgpSzj5I80HkFjLbKRHTUi3TmtUXoBg44pJEE7W/Pxw5SnSmCZL6iTzboU54EjlzbYf/SHohHNoTsVSoXA5LhlIRkj+oNiidma/M3MwgUATOStuZOUwMWRcvamRDyRPvolzs9mYmKBtyriWPUFVpk99ZUgOxqOcL50ENqsRDl0q+ZKnjP/lsRItZlnkAS5Vm4O5kOeQCt+Ljz7MRa9F6d0raZXkoQQeftIhejN/YLQI7mhqNqLK8eUwSI+6tala2SsZZEqlwh9/iSBjIpV2RaRzz9Uat81g4ltrmIKnHfa9SoHhaE2dKEoFfGYFkVEXrWQ5wADN+09TMWoCsO/jZCYS3P6sEpS8Xo7ThAWeyNc0teYPM9Wtz07LmF6Aj72zZCm+fWpM9Z4rUp6M2WK4o2pjDfFmjaV3jgPGgEbHD5KpYGhFbf0ZL4ZZTyFCyMNk5NMxXDavTzo1Xj5rTjyXwOkv5gxb7Tl3bIUQ6any1x45bDZt7neWFnSnPeuNi2ib1pmZc+fOArpBH0/rqHW1pWe4F6nG2FPW9W61iHedbNc4d0QNVfPim+O1oIa1R2Jin1uOuAlXzh1eeWEAZJo9CIIwZCGjaKH9DZ1dZDodCwDCY71XWM7QCTXs+d8tjliZVW6WnY6OpFfjy44OtAwKMR9S7tpbALWBxWT312pvUai7SQuZzJiL80p4aBM7rhnh7RWLN1rOafwzerZhxpWg8MUHDrAdQkcwq3+vNhDi1XzFT/j0DbZhbC32VqQZ7+wln5lN6JNiG7GY6EbUorA8fT5vqTWA7sQ9is4ETEsxKcQWQlw3LYwO5Wbx40qxZTvwae1q+vq62Tt/LVipQ4OiGbNzhF2d8eMWWIzuGln11c6iTYtode3IZv/QeFgQHkJWhx7nYf+lz7nlunh4CdisveJ6fVdAekZXqzLPz+54H03w/oy6MBiQ955fCje5w47K7JiB41TDi5xwcG1mDsG0V0huuYiiGDvjpdclTqxADNAgCCp7/kRJGr/CG4ZwJ515hsZaW3hKAppsGXxFWG2/xyTKm1aG3Uc0f/FIIN3b+3ikOG6nx2mfTikpmWX83grKXQgH08h/N2hFeT72m+uRGT7GZpiwjzEzlEvHOJJl9/Il3atQoLGPcmaOHUWDwPcSP26nzdwmPSen+QiezEQzmcyDH4sMSMe8E/nIhoph4XI9l+TSEjyyziUPGcDHEpaz4XYHF7MC76NtwAodAzYt1loYq4/YjQTZg0RIIXsSYdeCLa3wFOBdCqRBv9lPPrmM2Bc5wzoOEZ6A9nO9lnov22+Iy/8NA8DHbYHe1dhpf4x/9+a5Kav0jDTPwp7UuEkhS7rz4ZDb8RgZK8pC72eyTdJ1DrgNfcG6wU1X2EZ0HNf2j8wbtx5p/jHBauyTDnsOGR+ejzBto/jEK21zHVoB4w8v/guE4qM2Bt7z8b3Q/9xOaM9CN6/oQvmXGcRPg5Ie6QjzbYqHPAdmP/Th19NmvRqzAYfU0m2Xox1L/DIIfufxP+I1tJuUjgM98/iVw64TnB8CrftLMAhv+/tEiLePSy+1hW9u2GmhxfuEGUA6/2B4QKXvjN4af/xFi8M9e/hf4ihShNZaGF26GP2EJkD/2U/SGrcMf4LC5C6OHqxw0vR1+VPNP0PyoXQNWpS1XYyGa8hlY8iMujB5eNt87/QHIT7kweuyOzma/KSmRgrI/Tsstq3wiwLZ0eB4QM1A32//qvAn2t55mBraDk54NWpx/CnwfuRsiMhw48H/8a/gv81oZMG7eYNYAAAAASUVORK5CYII=;" vertex="1" parent="1">
          <mxGeometry x="580" y="92.94" width="50" height="47.06" as="geometry" />
        </mxCell>
        <mxCell id="-l0L1RNfN-XOFM-DuLYb-3" value="" style="shape=image;verticalLabelPosition=bottom;labelBackgroundColor=default;verticalAlign=top;aspect=fixed;imageAspect=0;image=https://github.com/kubernetes/community/raw/master/icons/png/resources/unlabeled/pod-128.png;" vertex="1" parent="1">
          <mxGeometry x="409.08000000000004" y="180.01" width="50.59" height="49.41" as="geometry" />
        </mxCell>
        <mxCell id="-l0L1RNfN-XOFM-DuLYb-4" value="" style="shape=image;verticalLabelPosition=bottom;labelBackgroundColor=default;verticalAlign=top;aspect=fixed;imageAspect=0;image=https://github.com/kubernetes/community/raw/master/icons/png/resources/labeled/pod-128.png;" vertex="1" parent="1">
          <mxGeometry x="503.59" y="140" width="50" height="48.83" as="geometry" />
        </mxCell>
        <mxCell id="-l0L1RNfN-XOFM-DuLYb-5" value="" style="shape=image;verticalLabelPosition=bottom;labelBackgroundColor=default;verticalAlign=top;aspect=fixed;imageAspect=0;image=https://github.com/kubernetes/community/raw/master/icons/png/resources/labeled/pod-128.png;" vertex="1" parent="1">
          <mxGeometry x="560" y="180.59" width="50" height="48.83" as="geometry" />
        </mxCell>
        <mxCell id="-l0L1RNfN-XOFM-DuLYb-6" value="" style="shape=image;verticalLabelPosition=bottom;labelBackgroundColor=default;verticalAlign=top;aspect=fixed;imageAspect=0;image=https://github.com/kubernetes/community/raw/master/icons/png/resources/labeled/pod-128.png;" vertex="1" parent="1">
          <mxGeometry x="503.59" y="217" width="50" height="48.83" as="geometry" />
        </mxCell>
        <mxCell id="-l0L1RNfN-XOFM-DuLYb-15" value="" style="rounded=1;whiteSpace=wrap;html=1;strokeColor=#007FFF;" vertex="1" parent="1">
          <mxGeometry x="398.37" y="320" width="71.25" height="70" as="geometry" />
        </mxCell>
        <mxCell id="-l0L1RNfN-XOFM-DuLYb-14" value="" style="shape=image;verticalLabelPosition=bottom;labelBackgroundColor=default;verticalAlign=top;aspect=fixed;imageAspect=0;image=data:image/png,iVBORw0KGgoAAAANSUhEUgAAAOEAAADhCAMAAAAJbSJIAAAAZlBMVEX///8AnusAnOsAmuoAmOoAluro9f32/P77/v/A4vni8vwAn+uy2/eZ0PXd8Pyd0fXI5fnv+f6p1/Znu/HW7Pus2PYuqO1zv/GMyvQbpOxHr+6BxfNAre5btvBuvfHH5fmHx/O73fiGqAQwAAAJJUlEQVR4nO2d53rrIAyGbcDZzW520uT+b/I4zXLMEiBQcx7e362NbKLxIXBRZDKZTCaTyWQymUwmk8n8SXrjy+RrchlTjyMW00Up+BWxmlOPJQKdr6Hg5QOx/d/eY//YMO8KE0vqMSEy3peClRI96nEh0f0+tF7fHb6nHhoKyxPjitd3M7FLPbpgZpOtanY+LRxRDzCQ/pErZ+fL2Xz0NB1smOn13dhRj9Kf0U7tXFpsqcfpyXLNtc7lnSH1UH3oTlb22flgRT1ad6YL0Oy8w9bU43Wksxm62FdHi89Kvy8w59LkkzLT8Z7Df32vd/gpOU1vfvAwr/yYYDE9CWBsaPMRjmb2tXX+9T35AEfTP1be5pV/39EMzkO/X9/LQmoTTPRGh6DXd4UdqK3QA088jRb+1dpp5pJ4mvij9e9PWzLzRwyojZHpbIyihCvU5rTpXXbBzqUJ+2MFvkbxDIBvqG1q0J2vKlzzakSf2qwn04VFMvOjmlEbdiMo8TTyNwoLaTkFD7agNs478bwuDwL+jU+IzasTT6/Xx8RiM58c7SaKKal9y7V+OcU87tWtIjpY/5ITOprZZOsZG9hz6tn/ls7R/PjHBnF8vJe99RJUCsZV8fQN7Xz4DOETYf9rEgXDQ/F8wsSr2gMYSKFghCWeYvXqrPiqIE8k8Rp+nXiG5NWsOefOgDeYWsGYnsISz2rR8Px7iIFJFQzLUrsdvv1pXG4BMjChghGceLLq3LzeEXi1RAoGaKndMtJDc6i9A/RxsRT2AZfajeN8j2rdFfR5JVAwUBRPsXhbHesMwVeMrWA4LbXrR7l9rw46JfyacRUMt6V2HUy0XsPY5ZmJeIXFe4+nP2LXcoZTWJS4E62wuCCJEkwKZxcnA9kxinnjfXBsuCNO7fX3OSQVfRFDweh9ey61K4a3lfSHL6c3GEPBWK59l9olJA9TQFPRBhVuD0Zg3fDOew5z4+RqIK6jwYkNdxj7lu+wc74+ooLRwRWsWzmMr4F4CsYlrFNCGpfsYVxS0QY4Cgb2apjKw9STZOulGoc7mjo2IK+GqTzMNVPzukuwgrE8YXRKNGFMWZL/ODvR29XCFAy0TokGlcrDuGZqL4IUjMA2LPWAVB6mcM7UXvgrGIMAwVqL2sPUbDzfYP3I/MzrjXA7Je5IVdKDtbeBfgqG92qYZTBqD1PANTUFHgpG7VzwOyWuVFKVdKfnkcg8cVYwprbNRb7oPEydyGxDHijvuJiH3IbVgFXaydQJMtBpn0zIapgFsdM+ac9E5gFcwcBvw2qMwhCUp4EPlX+BzIvShvVE62Fqvn3j/AOQgnHdeIpiihK9hymAq59GhLWwiNeG9Ys2h/nFWZGRsW1Xs248DcTgYQrw4qAJdjKZFyXxbMK1OcwvIXH+eQu9guHbhuWArPQ26a5QlgN0CgZO/78RvjXKJzMvwUK+i/IhBi+1A2DCHKcGDmtnJlSOZhanRfcds4ep5xCWZK5QMEbRX189dUqLsNAPDoOPO8k3Cg+xdqq1JQrPw6PEHSEdSjOJb6DFwyA/5fa1x2gPT4fNwxQhgoV8N0nBOMX2MTYPUwQJFhKygjHEu7jyhuXFZh+8CQiCrGDEtdDqYa5xHtWTC2nGLCJGCr6yLwGNkeL8E/kO0VwpqwC19hLZDagUjOCSWsOr6dyA78KEFqWC0Q/TfTR3snuYImBhQotawZgt0NM2sYY0WW/wp49uF8kYd3sVxMMUqHH+iV7BGJ9XWMsugBzml2MEA80KxvhrhdH1A/IwdT2PGucfWHswBpNDFWYkzMOgx/kHkB6M2XwXoGbAPAxePd+mAt29mH3v/N6ksFZJd0J1ey3wk726o6NzIyUHdzxeYuVRbj0Y3cvC6WAmcYSu2kG2Zfnh3oPRP0FXn/gQ5mFqzvFEBa8ejOkaYCQTe/BGsRhx/sHQc7vadG/pTW9unLOBWc+3CdlFsjzrl6OYQ6sjbj3fJnAXyXijzusqWA7zS6Q4/7QweBfJQM7rjIudbdDr+RaVUw+Ghs5bXmdop1DgtiXEBwQDr7zyOm3DlpJRbOkZcxfJ7LsuKIV5sbNNfG0d2IMBpTsaOQWfiHH+Ae05GAjr81Yoz8FAWZ+3QnjgzsxnQ4Ez3KhgRGUA39saZCHZSZ7YsrYOspM8o9XzkoVE37KIHucfUJ3k6bozMsBCmpM8Y5a7LWhO8owha+uQezDiE7fcbZPkHIx3Ipe7bQPTn+TpcIYFBulP8uylNRBBwXAFff3aAoqC4cQkpZcpKQqLTVoLI52DYWKd+GeIq2BAAJy+iQmBgmE/fBPXwvQKRuSOwDYECkZaR0OgYHQTW5hewRikDfgUJ3mmtRDhHAxXPI978IXg62qjpL9DCgUjbVpKoWCkTUspFIy0aSnFR4+SpqUk3yI5pLSQnwks3CY0sOTgfixEUhqo2EUSn17SgE/xvdhOSgsJFIyiWKa0kEDBsKelXCBufyDpwbCkpWLT683R9sYjn+QJw5yWVr/evYNyvkBJ1INxNg2ePcpVhFM+SqoeDENayspXM9wPxqYymo8e6dNStm3qfl2ENVSaHoyV9oEfWh0T4Qv9BApGoVdLhRycx6HnfdB8H14zSYVSbQjr6qPpwZipX4tuY3DQwRxccbRyfNRqaaVVU0JCI4WCoUlLjcnV3rt1iqAHo6YvW8hK87P+Kf1eI9HXVL+l0bKtrUqd7bwcDjunMEhCSkulMKjCKzSSKBh1WtryjRxWoy6H7jOV6LPNrSNhBPiUe4/QGNMOPe9pqfEUwRauoZFEwShai/iVU0h2DI0kCkbxrpY6t2M5VY1Uu0heM41x99rGpWok6MG40n0mKGzoI9Y6VI1Eu0ieaSlfedZu0G1gnOizzY+0lPtnVMCqkeqzzfetlCLoAYNCI9UukltvqTiHXWUEEFTtRwbHoXP9FVXBEwgQGmkUjJoLr4YYXcm2bZlUn22+grSiNzXv/qZRMHDpGqtGGgUDG9NJKBRLoxHQh0aqeI+P7sNycb81mpSLOjR6fjDnTzJTbRKjqg0jofqeOtG22FhIobH6f36Fd1pVo4v68zH0X0fjg45//UT6x1JwzoXY/RfZjJLe8jKf9CnP+MhkMplMJpPJZDKZTCZDwj+IwIuPaEtY7wAAAABJRU5ErkJggg==;" vertex="1" parent="1">
          <mxGeometry x="415.62" y="336.25" width="37.5" height="37.5" as="geometry" />
        </mxCell>
        <mxCell id="-l0L1RNfN-XOFM-DuLYb-16" value="" style="endArrow=classic;html=1;rounded=0;exitX=0.5;exitY=1;exitDx=0;exitDy=0;entryX=0.5;entryY=0;entryDx=0;entryDy=0;strokeColor=#007FFF;" edge="1" parent="1" source="-l0L1RNfN-XOFM-DuLYb-3" target="-l0L1RNfN-XOFM-DuLYb-15">
          <mxGeometry width="50" height="50" relative="1" as="geometry">
            <mxPoint x="430" y="310" as="sourcePoint" />
            <mxPoint x="480" y="260" as="targetPoint" />
          </mxGeometry>
        </mxCell>
        <mxCell id="-l0L1RNfN-XOFM-DuLYb-19" value="k8-crash&lt;div style=&quot;font-size: 6px;&quot;&gt;reporter&lt;/div&gt;" style="text;html=1;align=center;verticalAlign=middle;resizable=0;points=[];autosize=1;fontColor=#FFFFFF;fontSize=6;" vertex="1" parent="1">
          <mxGeometry x="409" y="205.41" width="50" height="30" as="geometry" />
        </mxCell>
        <mxCell id="-l0L1RNfN-XOFM-DuLYb-21" value="" style="shape=image;verticalLabelPosition=bottom;labelBackgroundColor=default;verticalAlign=top;aspect=fixed;imageAspect=0;image=data:image/png,iVBORw0KGgoAAAANSUhEUgAAAgAAAAIACAYAAAD0eNT6AAAACXBIWXMAAAAKAAAACgGxEd1IAAAAGXRFWHRTb2Z0d2FyZQB3d3cuaW5rc2NhcGUub3Jnm+48GgAAIABJREFUeJzt3XecnGW9///XZ3Y3ZVNJJRCCNGkiJbQQkszsphB6MVgoNqwcu6Ken19PUDmIDawHbKioR8kBC2gkZHfGkBjQEzyIoAgIKEoJkISEJLvJzuf3xySShE2yZWY+98z9fj4e+0iy2b3nTZid6z3Xfd3XbYhIovnkyU2MGjWWTZvGkcmMw30kMBL3PYDS781GAEOAZtyHYDYAGAE0bvl1W0OBph0+twlYt8PnVgNdwBrcOzF7AVgPvLDl7178MFuF2WqKxadpbFzJpk1PW6GwuWz/CCJSdhYdQCTNfNq0sZhNpKFhH8wmARNxnwjsDYwDxm75qEUrgaeBlZg9DvwDeBx4jGLx78DjVig8ExlQJM1UAEQqyOfNa+CppybR1HQg7gcABwIH4F76FQbHJgy3AbOHgIcpFh8CSr+Hh8hm/2bz5xdj44nULxUAkTLxWbP2YtOmw4DDMSv9CkdRmpqX3uukVAjuw+x+4D7c72fMmD/bggVdwdlEap4KgEgv+eTJTQwf/nJg8jYfRwPNocHSYxPwILAC9xXACoYNu9tuuWV9cC6RmqICILILW6bwDyOTOQGzEzE7HvdDKS2uk+TYDNyP2W8pFu8E7iKbvV+nEER2TgVAZBs+d+5wNm48GZiK+xTMjgWGReeSPnke+B1mdwLL6OhYasuWrY0OJZIUKgCSaj516jCamk4gk5mJ+8nA8bz0EjmpD13AA8BSzBZTLOZ1FYKkmQqApIpPmTKY5uaTKRZnAbOAI9HPQVoVMbsH99txvx1YaoXCxuhQItWiFz6pe57LHQnMoTTgnwwMik0kCbUBuAOz29m8+TZbsuTe6EAilaQCIHXHs9lBwMmYnQGcDUwKjiS16THgNsxupVi8XbMDUm9UAKQueGvraIrFs4AzgZno2nsprxdwXwT8nIEDf2633fZcdCCR/lIBkJrl2ewYzE7FbB7uc9DiPamOLuBO3BfQ1XWj3XHHE9GBRPpCBUBqire2jsf9fNzPB04CMtGZJNW6gGW437ilDKyMDiTSUyoAkng+ZcpgBg8+HbhY7/QlwUozA/A9Ojv/W3sOSNKpAEgieTbbCJyC2UXAGeimOVJb1mP2c9y/z5gxv9K9CySJVAAkUTyXOxiz1+L+RrR6X+rDE8ACMplvWVvbH6LDiGylAiDhfOrUYQwc+BqKxTdiNiU6j0gFLcP9euDHViisiw4j6aYCIGE8mz2ETOYNuL8V2CM6j0gVrQX+G/ia5fP3RIeRdFIBkKryefMG8OyzZ20Z9GdG5xFJgBXA19m48QZbvnxDdBhJDxUAqQqfNWsvurreuWXgHxudRySBnsb963R1fU17C0g1qABIRXlLyzG4vw24GO3BL9ITncDPyGSutra25dFhpH6pAEjZ+fz5GQqFczF7H6XNekSkb5YCVzNjxk9t/vxidBipLyoAUjY+b94AnnnmNcBHgUOi84jUkb/i/iXgOt2USMpFBUD6zadOHUZT05sw+xCwd3QekTr2FGbXUixeY4XC6ugwUttUAKTPfM6cUXR0vA+zdwEjovOIpMhq4Ets2nSNLV26KjqM1CYVAOk1b20djfu7cH8PMDI6j0iKrcPsqzQ1fUa3KJbeUgGQHvNsdgyZzL/h/l70jl8kSdYB3yaT+U9ra3sqOozUBhUA2S3PZocCl2L2UTTwiyRZaUYgk7nSFi9eEx1Gkk0FQHZqy6r+NwCfAMYHxxGRnnsW988CX9RVA7IzKgDyEp7NNpLJvBH3jwMTo/OISJ/9DbicMWO+q1sSy45UAGQ7ns3OJJP5Au5HRGcRkbL5M2Yft/b2BdFBJDlUAAQAb209jGLxs8Cp0VlEpGIWAx/UHQgFVABSz1ta9gY+hfvFQCY6j4hUXBdm11Ms/j8rFJ6MDiNxVABSyidPbmLYsHdi9klgWHQeEam6FzD7HAMHXmkLF3ZEh5HqUwFIIc/lWoEvAYdFZxGRYGYPAu+x9vaF0VGkulQAUsRbWg7A/UpgXnQWEUkYs1vZvPndtmTJI9FRpDpUAFLAJ09uYvjwDwH/DxgUnUdEEms9MB/3q61Q2BwdRipLBaDOeTZ7FGbfBCZHZxGRmnEPmcxbrK3td9FBpHJUAOqUT5kymMGD/wP3DwIN0XlEpOZsBr5GU9O/26JFL0SHkfJTAahD3tIyHfdvAC+PziIiNe+vuL/NCoXF0UGkvFQA6ohnsyMxuwp4C/p/KyLl48D3yWTeZ21tz0aHkfLQIFEnvKXlDNz/C9g7OouI1K2ngMssn/9edBDpPxWAGrdlJ79rcT89OouIpMbP2Lz5HXbHHU9EB5G+UwGoYd7Scs6Wc/2jo7OISOo8A1xi+fzPooNI36gA1CCfMmUwgwZ9Gnh3dBYRSb0bcH+nFQrrooNI76gA1BjPZo/F7Adohb+IJMcDwAWWz6+IDiI9pwJQIxyMbPbdmH0GGBCdR0RkB5sxu4LRoz9pCxZ0RYeR3VMBqAE+c+Ykurq+B8yIziIiskvueeBiKxQej44iu6b7vyecZ7Ovoqvr92jwF5FaYJbD7I+ey70uOorsmmYAEsrnzh3Oxo1fAS6KziIi0kfX4/5uLRBMJhWABPJc7mDgZuCw6CwiIv30AJnMudbWdn90ENmeTgEkjOdyZwJ3ocFfROrDwRSLd3o2+6roILI9zQAkhM+b18Czz16B+2Xo/4uI1B/H7DOMHv3/6SqBZNBAkwCezY4BfojZrOgsIiIVViCTeY21tT0VHSTtVACCeUvLMbjfBLwsOouISJU8jtl51t7+2+ggaaY1AIE8l7sY96Vo8BeRdJmI+xLPZi+JDpJmmgEI4HPnDmTjxi8Db4nOIiIS7AY2bnybLV++ITpI2qgAVJnPmrUXmzb9FLPjorOIiCTEnbifY4XCk9FB0kQFoIo8m30FZr8AJkVnERFJmH8Ap1k+f090kLTQGoAq8Wx2JmZL0eAvItKdvYE7PJs9JTpIWqgAVIG3tLwRs18CI6KziIgk2DDMbvFc7q3RQdJABaCCHMxbWubj/m2gKTqPiEgNaASu81zui67T1BWlf9wK2bLS/1vABdFZRERq1I24v94KhY3RQeqRCkAF+Jw5o+jsvBndwldEpL+W4X62FQrPRAepNyoAZeYzZ+5PV9cvgEOis4iI1ImH6Oo61ZYseTA6SD1RASgjb2k5HvdbgbHRWURE6sxTlC4TXBEdpF5oEWCZeDabxf12NPiLiFTCeKDNc7mp0UHqhQpAGXhLyxmYLQSGR2cREaljI4BF3tqqO6eWgQpAP3k2eyHuNwODorOIiKRAM8XiLd7Sck50kFqnAtAPnsu9D7PvUbpuVUREqmMg7j/2XO786CC1TAWgjzyX+xDwBbSQUkQkQhPwQ8/l3hQdpFapAPSBZ7MfBj4TnUNEJOUagG96S8t7o4PUIhWAXvKWlvmYfTo6h4iIAGC4X+253Mejg9QaTV/3gmezn8TsY9E5RESkG2ZXWXv7R6Jj1ArNAPSQ53JXaPAXEUkw9w97Lnd5dIxaoQLQA57NfhL49+gcIiKyWx/3lhbNAvSATgHsxpbzSmqUIiK15QOWz38hOkSSqQDsgmezH8Dsc9E5RESk1xyzt1l7+zeigySVCsBOeEvLe3G/OjqHiIj0WRfwOsvnb4wOkkQqAN3wlpaLcP8u+vcREal1mzA7z9rbb4kOkjQa4HbgudxZwP+g7X1FROpFJ+5nWaHwq+ggSaICsA1vaWnB/Rfoxj4iIvVmPWZzrb19SXSQpFAB2MJbWo7HvQ0YGp1FREQqYg1mLdbefnd0kCRQAQB8+vT9aGi4ExgXnUVERCrqGdynWKHwUHSQaKkvAD5nzig6O38DHBydRaRiBg2Cww+HAw6AffaBESNg8ODS323YAKtXw+OPw0MPwX33QUdHbF6RSjL7E52dU23p0lXRUSKlugD4vHkDeOaZhUBLdBaRshs0CKZPh1mz4MgjobGH61o3bYJ77oHbb4clS1QGpF4tYdCg2bZwYWqf4KktAA5GLvdd4KLoLCJl1dwM550H555beqffH6tXw003wc03l2YKROqJ2Y9ob3+dgUdHiZDeApDLXYH295d6M2MGXHopjBlT3uOuXAlf+QrccUd5jysSzexya2+fHx0jQioLgOdybwK+FZ1DpGwGDoS3vKX0rr+Sbr8drr4aNm6s7OOIVI/j/kYrFL4bHaTaUlcAPJvNYnYbMCA6i0hZDBsGV14Jhx1Wncd74AH46EdLpwdE6sMm3E+1QmFxdJBqSlUB8NbWwygWlwEjo7OIlMWoUXDNNTBxYnUf9+9/h/e+F1alehG11Jfn6eo62ZYsuTc6SLWkpgD4tGkTaGy8E5gUnUWkLIYMKQ3+BxwQ8/gPPgjvex+sXx/z+CLl9+iWPQKejA5SDZnoANXg2ewgGhp+hgZ/qRdmcNllcYM/wEEHwYc+FPf4IuX3Msx+4vPmpeIUcSoKAGZfwey46BgiZXPmmTBtWnSK0lUHp58enUKknE5k5covRoeohrovAJ7LvRV4c3QOkbIZNQrenKCn9NvfDqNHR6cQKR+zt2+5Wqyu1XUB8JaW44EvRecQKas3vQmGJuieVc3NcPHF0SlEyu2rns0eGx2ikuq2AHhr62jcfwwMjM4iUjZjx8Ls2dEpXuqUU8q/+ZBIrEGY3eTZbN0+seuyAPi8eQ0Uiz8EXhadRaSszjyz53v6V1NTE5xxRnQKkXKbhNmPfN68hugglVCXBYCVKz8NJPBtkkg/mEFra3SKnZs1q5RRpL608uyzl0eHqIS6KwCezZ6N2Qeic4iU3UEHwZ57RqfYuT33hP33j04hUn7u/+653HnRMcqtrgqA53IHY/ZdUrTBkaTIUUdFJ9i9o4+OTiBSCQZc79OnHxodpJzqpgD43LnDgZ8Bw6OziFTEwQdHJ9i9l788OoFIpQyjoWGBZ7MJugSnf+qmALBx41eAGniFFOmjffaJTrB7tZBRpO8OJ5O5OjpEudRFAfBs9lXARdE5RCqqFi6zGzcuOoFIZblf4rnc+dExyqHmC4BnsxMxuy46h0jFDRkSnWD3mpujE4hUw7U+c2bN31umpguAz5+fAb4HjIrOIlJxDTVwKXIS9ygQKb896Or6Xq3vD1DTBYBC4aOY5aJjiFTFxo3RCXZPtwaW9JjBM8+8PzpEf9RsAfBcbjJmH4/OIVI1zz8fnWD31q6NTiBSTVd4a2vN3mm2JguAz549BPgBkIp7NosA8I9/RCfYvccfj04gUk1NuH/XzzijJhe/1GQBYNOmL6JL/iRtHn00OsHu1UJGkXJyP5R16z4XHaMvaq4AeEvLOUCCboYuUiX33BOdYPdqIaNI+b3Dc7kzo0P0Vk0VAG9p2Rv3b0TnEAlxzz2weXN0ip3btAn+8IfoFCJRvunZbIJv1vFSNVUAcP8qMDo6hkiItWvht7+NTrFzd94JL7wQnUIkylgymZp6g1ozBcCz2dcAZ0XnEAn1y19GJ9i5hQujE4jEcj/dW1peGx2jp2qiAPicOaMwuyY6h0i45cvhkUeiU7zUww/DXXdFpxCJ5/5lb20dHx2jJ2qiANDZ+QWgJv5BRSrKHa6/PjrFS33726VsIjKaYvHL0SF6IvEFwFtbc8DF0TlEEmPp0tL59qT4zW9KMxMistU8z+XOiw6xO4kuAH7GGc0Ui98ALDqLSKJcfTWsWROdAlavLmURkR19xU8+eY/oELuS6ALAunWfBA6IjiGSOCtXwpVXQrEYl6GrC664Ap59Ni6DSHLtSVPTFdEhdiWx76y9tfU4isXlQE3fbUmkombNgo98BKzKP8ru8LnPaeW/yK4VMZtm7e2/iQ7SnUTOAHg224j7dWjwF9m122+HL36xujMBxWJp2l+Dv8juZIBrffLkpugg3UlkAcDsMtyPjo4hkmjDhsGxx5Z+vffe6pSArq7Sbn/Dh7/42CKyc+5HMHz4+6JjdCdxpwC8peUA3P8IDIrOIpIYTU1w+OFw8MEvfkyYEJ2q5J//hAceePHjvvuSvWWxSPWtp6HhUFu8+G/RQbbVGB3gJYrFqzHT4C8yalTpXfaUKXDccdCc0DuO7rVX6SOXK/25owP++MfSpYpLl8JTT8XmE4nXTFfX54Dzo4NsK1EzAN7SMhv326JziIQ5+ODSQHrCCbDvvtFpyuOxx0q7BLa3w1/+Ep1GJNIpls8nZoxLTAHwefMG8MwzfwAOjs4iUlWjR0M2C3PmwIEHRqeprMceg0IBfvUrzQxIGt3P888fZStWbIoOAkkqALncR4H/jM4hUhUNDTB9emnQP/ZYyCRzPW7FFIvwu9+VisDSpaXFhSLp8H7L5xOxe1YiCoC3tOyN+5+BodFZRCqqqak0xX/hhTBxYnSaZHjySbjpJrj11tL6AZH69jyZzMutrS18CiwZBSCX+w7w+ugcIhUzYgSceiqcd15pcZ+81Jo18NOfwk9+As8/H51GpJKus3z+7dEhwguA53JHAneT1D0JRPqjuRkuuADOOQcG6eKWHtmwoVQCfvhDWL8+Oo1IJXTR1XW0LVlyb2SIJBSA24GZ0TlEysqstE3v294GeyT6fiDJtWYNfP/7pTIQec8Dkcr4leXzcyMDhBYAz2ZPx+yWyAwiZTd5MrzjHbD//tFJ6sNjj8G115YuJRSpL6GXBYYVAM9mG8lk/oD7oVEZRMpq9Gh43/vgpJOik9SnO+6Aa66BVauik4iUh9m9jB59tC1YEHIZTNx5d7M3afCXujFjBnzrWxr8K2naNPjud+H006OTiJSH+xGsXHlh1MOHzAB4NjsIs78A+0Q8vkjZjBxZetc/bVp0knRZvhy+8AV49tnoJCL99RiDBh1sCxdW/RrYmBmATObf0OAvte6kk+D66zX4R5gyBb7xjdKvIrVtXzo63hrxwFWfAfCpU4cxYMBDwLhqP7ZIWZjBa14Dl1xS+r3EcYcf/Qi++c3S70Vq00o6Ow+wZcvWVvNBqz8D0NR0GRr8pVYNHw6f/jS85S0a/JPADF77WrjyShg2LDqNSF+Npanp3dV+0Kq+gnk2OwazvwL6SZXac9BBMH8+TJgQnUS68/TT8B//AQ88EJ1EpC9Ws2nT/rZ0adUuc6nuDEAm80E0+EstOukk+NKXNPgn2bhxpcsETzghOolIX4xkwID3VPMBqzYD4K2toykWH0EFQGrN7NnwwQ9CY2N0EumJYrF0hcAvfxmdRKS31rBp037VmgWo3gxAsfgBNPhLrTnvPPjwhzX415JMBj7wgdLaAJHaMoLGxqqtBajKDIDPmTOKzs5HUQGQWmEG73xnqQBI7brxRrjuOl0hILWkarMA1ZkB2LTp/Wjwl1phBu9+twb/enD++fCud0WnEOmNETQ1VeVJW/EZAJ87dzgbNz4GjKz0Y4mUxVvfWrrOX+rH//wPfO1r0SlEemoV7pOsUFhXyQep/AxAR8c70eAvteKNb9TgX49e9Sq4MGzLdZHe2oNM5g2VfpCKzgD43LkD2bjxEUDXTknyvepVpfP+Ur+uuw5+/OPoFCI98QhjxhxUyTsFVnYGYMOGN6DBX2rB3Lka/NPgrW+FmTOjU4j0xH6sXHlOJR+gYgXA581rIJP5QKWOL1I2RxwB731vdAqpBjO47DI48sjoJCI9cVklD165GYCVK8/B/aCKHV+kHCZMgMsvh6am6CRSLY2NpS2d99orOonIrpkd57nc1EodvpKnAN5fwWOL9F9zM3zqUzBSa1RTZ8QIuOIKGDIkOonIrrlXbCa9IgXAc7nJmOlG3ZJcZvDxj8N++0UnkSj77gv//u+6q6Mkm9lZns0eUolDV2oGQO/+JdkuvBCOPz46hUSbMkWXfUrSZTCryPbAZa++PmvWXmze/AgwoNzHFimLI44o3SymoSE6iSRBVxe8733wxz9GJxHZmfW472uFwjPlPGj5ZwA2b74UDf6SVMOGlaZ9NfjLVg0N8LGPwfDh0UlEdqYZs7Jfp1zWAuBz5w4E3lLOY4qUzdZLwMaPj04iSTNuXOmuj1oPIMn1Tp83r6xvrss7A7BhwzxgbFmPKVIuZ58NUyt2RY3UuilT4LTTolOI7Mx4Vq48t5wHLG8BMHtHWY8nUi577gmXXBKdQpLu7W8vzQaIJJHZ28t5uLIVAG9tfSVwUrmOJ1I2ZvCBD8DgwdFJJOmam+FDH9KpAEmqGZ7LHV6ug5VvBqCrS+/+JZlOOw0mT45OIbVi8mSYPTs6hUj3zMq2zq4sNdez2aGY/QPQMlpJltGj4frrYejQ6CRSS154oXRr6GfKetWVSDmspqlpoi1a9EJ/D1SeGYBM5rVo8Jckete7NPhL7w0ZUloPIJI8I+nsfFU5DlSeAuD+prIcR6Scjj4apk+PTiG1qqVFdw2UZDJ7YzkO0+8C4LncwcAJZcgiUj6ZDFx6aXQKqXWXXlp6Lokky3TPZg/s70HK8cx+MxXYUlikX848E/bfPzqF1LoDD4RTT41OIbIjA15fjoP0mWezjZj9DZjQ3yAiZTNsGNxwg7Z2lfJYuxYuugiefz46ici2HmfMmJfZggVdfT1A/2YAMpm5aPCXpLn4Yg3+Uj7DhsHrXhedQmRHE3n22db+HKB/BcD9on59v0i5jR4Np58enULqzdlnw5gx0SlEdtSvMbjPBcCnTh0G6JVWkuXii2HgwOgUUm8GDNAsgCSP+zk+e/aQvn5732cAmprOBbS3qiTH+PEwd250CqlXp58OE3TGUxJlCJ2dZ/T1m/teAMxUhyVZXv96aGyMTiH1qrERLrggOoXI9sxe29dv7VMB8NmzxwEtfX1QkbKbOFH7t0vlzZkDe+8dnUJkW3O9tXV0X76xbzMAmza9BtBbLUmOV79aG7ZI5TU0wLx50SlEttVEV1eftgbu6yvm+X38PpHy22MPmDUrOoWkxSmnwKhR0SlEXmTWp1ba6wLg2eyewJS+PJhIRZx3XmmVtkg1DBhQ2mlSJDmyPm3a2N5+U+9nAMzO7dP3iVRCc7NejKX6zjkHBusiKEmMBhoaev1C2JeB/Lw+fI9IZZx6qm73K9U3bFhpQaBIcvR6bO5VAdiy0lD3V5VkMIOzzopOIWl13nml56BIEpjN9JNP3qM339K7GQD3M9Hqf0mK447TJVkSZ++94aijolOIbNVEY+NpvfmG3haAs3v19SKVdEafN8ASKQ+tP5EkMevVE7LHBcDnzh2INv+RpBg7Fk48MTqFpN3JJ5duQCWSDHN83rweXxLV8xmAjRtbAa22kmQ47bTSpiwikRoadP8JSZLhPPPMtJ5+cW9OAejOf5IMmUxp9b9IEpx2mhYDSpL0eB1AbwqAXnElGY45Rvdml+QYPx6OPDI6hchWPV4H0KMC4K2trwT27XMckXLStr+SNHpOSnIc4LncwT35wp7NABSLp/Qrjki5DBpUWnglkiQzZsDAgdEpRErcezRm9/QUgOqtJMO0adqCVZKnuRlOOik6hUiJWY/G7N0WAM9mBwFT+x1IpBxmz45OINK9mTOjE4hsld1y6f4u7X4GIJOZDugtl8QbORKOPjo6hUj3jjuudI8AkXhD2Lhxtxul7L4AFIua/pdkOPnk0iWAIknU2KjTAJIcPTgNsPtX0x6eSxCpOC3+k6Sb1uM9WEQqy71/BcDnzBkFHFG2QCJ9NWRI6fp/kSQ77rjSgkCReJM9mx25qy/Y9QxAR8f03X6NSDWcdFJpilUkyZqa4Pjjo1OIADRgtstzUrse3M2mlzWOSF9N1YUoUiN0GkCSYjdj+O7e3c8oYxSRvmlshGOPjU4h0jMnnKDZKkkG912O4TstAD537nBAG1xLvCOO0HlVqR3NzXDoodEpRACO9Wx2p3fx3fkMwMaNJwO636rEO+GE6AQivXPccdEJRAAagZ3uB7CrUwC65kqSQYuqpNaotEpSmO10UcrOC4D7bncREqm4sWPhZS+LTiHSOwceCKNHR6cQAdhpG+22APj8+RnMJlcuj0gP6d2/1CIzmKyXUEmEE3z+/G7H+u5nAO644xXA8EomEukR7f0vteqoo6ITiACMpL394O7+ovsC4K4TWJIMR+pCFKlR2rlSkqKxsdtT+ioAklz77KPzqFK7xo2DPfeMTiGy0zG9+wJgphOvEk/v/qXW6TSAJEPPCoBns4Nw1y4WEk8FQGrdK18ZnUAE4DCfO3fgjp986QxAJvNKSpsHiMTSi6fUOpVYSYYBvPDCYTt+8qUFoFjUsmuJN25caQ8AkVo2YYLWsUgyNDS8ZGx/aQEwUwGQeNpLXerFIYdEJxAB9x4UAHdduyLxVACkXui5LEnQzZv77QqAz5vXgNkrqpdIZCcOe8npKpHapOeyJMORO+4IuP0MwHPPHQAMrmYikZdobISDDopOIVIehxwCDbqxqoQbSqEwadtPbF8A3A+vahyR7uy3Hwx8yRUrIrVp0CDYd9/oFCJgtt0Yv30BKBY1VyXx9O5f6s2BB0YnEAHYbozfvgCYqQBIvAMOiE4gUl4qAJIEO4zxO14FoAIg8fRiKfVGz2lJAvfuC8CW1YHd3jJQpGrMNAMg9efAA0vPbZFYhzn864n44gxAe/u+6AoAibbXXtDcHJ1CpLyGDoXx46NTiAylpWWvrX94sQA0NWmOSuK97GXRCUQqY7/9ohOIgPu/xvpMd58UCTNp0u6/RqQW7bNPdAKRnRQA0IlXibf33tEJRCpj4sToBCJg9q+xXjMAkix6lyT1SgVAkqHbGQAVAImnAiD1Ss9tSQKz7QvAlssCtEJFYg0ZAiNHRqcQqYzRo3WFi8Rz3+EUwLRpYwA9MyWW3iFJvdMaF4k33LPZkbC1ADQ16ZVX4qkASL3Tc1ySoFjcB7YWAHc9KyWeFklJvdNzXJKgoWGbAmCmAiDx9O5I6p1OAUgSmE0CzQBIkujdkdQ7lVxJgi1j/tbLAPXKK7HMVACk/uk5LsmwXQHYaxdfKFJ5I0bAoEGvVB6vAAAgAElEQVTRKUQqa+jQ0uWuIrEmwItrAHSbKok1alR0ApHqGDMmOoGk3ZYxf+saABUAiaUXRUmL0aOjE0jauY8DyPjkyU3AHsFxJO30oihpoee6xBvj8+Y1ZBgxYhylrYBF4uhFUdJCs10Sr4E1a0ZnAE3/SzwVAEkLrXeRJNi4cXwGUB2VeCoAkhaaAZAkaGwcm6FY1Pl/iacXRUkLlV1JAvc9MmQyKgAST9OikhYqAJIE7iMzgG7ALrHMVAAkPcaMKT3nRWKNzFAsjohOISk3ciQ0NkanEKmOpiYYNiw6hYhmACQB9tBZKEkZPecl3sgMZpoBkFjaG13SRs95iZbJjMzgPjQ6h6TcUD0FJWX0nJdoxeKQDGbN0Tkk5fRuSNJGz3mJZtacAQZH55CU04uhpI2e8xJvcAbQDIDE0ouhpI2e8xKvWQVA4unFUNJGz3mJp1MAkgBaECVpo+e8xBucAQZFp5CU07shSRs95yXe4AygLdgkll4MJW30nJd4jSoAEk8vhpI2es5LvIYM0BCdQlJukM5CScoM1tIrCdeoAiDxdCMgSZsGvexKOM0ASAKoAEja6Dkv8TQDIAmgd0OSNnrOS7yGTHQCEb0YSupoBkASIAN0RYeQlNOLoaSNnvMSr0sFQOLpxVDSRs95ibdZBUDi6cVQ0kanvSSeZgAkAfRiKGmj0ivxNmeAzdEpJOVUACRtVAAkXpcKgMRTAZC0UQGQeJszwMboFJJimQyYRacQqS4zPe8l2oYMsD46haSY3glJWmnmS2KtzwAbolNIiulFUNJKz32JpRkACaYXQUkrPfcllmYAJJheBCWt9NyXWBsyuGsGQOI0NUUnEImh575Ecl+fwWxddA5Jsebm6AQiMQYPjk4gaZbJvJABVkfnkBTTi6CklZ77Esn9uQywKjqHpJheBCWt9NyXWKszwJroFJJiehGUtNJzX2Kt0SkAiaU1AJJWQ4ZEJ5A0M1ulAiCxRoyITiASY/jw6ASSbqszZDJaAyBxVAAkrfTcl0hmqzN0da2MziEpNnJkdAKRGCoAEqlYfDpDV9dT0TkkxfQiKGml575E2rz56QwNDSuBYnQWSSnNAEha6bkvcbpobX02Y4XCZuC56DSSUqNGRScQiaHnvsRZafPnFzNb/vB0aBRJr7FjoxOIxBg3LjqBpNdTAKUC4K51AFJ9w4fDwIHRKURiNDdrLwCJsk0BMHsiNIqkk94BSdrpZ0BiPAkvFoC/h0aRdNL0v6SdfgYkgvvfYGsBKBZVAKT6xo+PTiASSz8DEmHLm37NAEiciROjE4jE2nvv6ASSRtsVgC3TASJVpQIgaaefAYmw3SmAhgbNAEj16d2PpJ1+BiTCoEEvzgBYW9uzwPrQQJIujY06/ymy116Qyez+60TKZ40tXPg8bJ0BKPlrUBhJo732KpUAkTRralIRlmp7eOtvXiwAZg+FRJF02m+/6AQiybD//tEJJF3+Nda/WACKRRUAqR696ImUqAxLdXVTADKZh7v9UpFK0IueSInKsFRXN6cANAMg1aQXPZESlWGppm1O929bADQDINUxZAhMmBCdQiQZ9tkHBg+OTiHp0c0MQEvLY+hSQKmGQw8Fs+gUIsmQycDBB0enkHRYR3v7P7f+4V8FwObPL2L2QEwmSZXDD49OIJIs+pmQ6rjPwLf+YfsdKNzvr3ocSZ/DDotOIJIs+pmQ6thujN9xCyoVAKksMzjkkOgUIsly+OE6LSaVZ7aLAqAZAKm0SZNg2LDoFCLJMny47gsglbfDGL99ASgW76tqGEkfTXWKdE8/G1JpZtuN8dsXgPHj/4quBJBK0oucSPe0EFAqay3t7X/b9hPbFQBbsKALuLeqkSRd9CIn0j2VY6kk9//b9goAeOkiQIC7qxRH0mboUNh33+gUIsm0337Q3BydQuqV2e93/NRLC0A3XyRSFpMna6WzyM5kMnDMMdEppF6596AAFIsqAFIZxx8fnUAk2Y47LjqB1K//2/ETLy0AgwffC2yqRhpJmcmToxOIJNsJJ0QnkPrUydixL7nM/yUFwBYu7AD+VJVIkh777w/jxkWnEEm2ceO0TkbKz+w+W7Cgc8dPd7cIEOCuCseRtNH0v0jP6DSAlJv7nd19uvsC4K4CIOWlAiDSM/pZkXLbyZiuGQCpvEGDdP2/SE+98pUwcGB0CqknZr2YAchm7wfWVDKPpMjkydDUFJ1CpDYMGABHHRWdQurHavL5v3T3F90WAJs/vwj8b0UjSXqceGJ0ApHaMmVKdAKpF+7Ld9wBcKudnQLY6ZSBSK80NMDUqdEpRGrL9Omlnx2R/tvpKf2dFwBYVoEgkjaTJ8PIkdEpRGrLyJFw5JHRKaQemC3d2V/tvAB0dCwFNlcij6RINhudQKQ26WdH+m8TTU07nc3faQGwZcvW0s3WgSI91tio6X+Rvpo2rfQzJNJ3v7NFi17Y2V/u6hQAwJIyh5E0Oe44GDYsOoVIbRoxAo4+OjqF1DL3XY7hKgBSOZrCFOkf/QxJf2Qy/SgAAwbcARTLmUdSoqkJTjopOoVIbdNpAOm7LjKZ3+zqC3ZZAOy2257D7J7yZpJUOOEEGDIkOoVIbRs6VPcGkL76X1u8eJcb+u3uFAC43162OJIec+dGJxCpD/pZkr5ZtLsvUAGQ8hs1Sjc0ESmXKVNg9OjoFFJrMpndjt27LwCwFNjQ/zSSGqeeql3MRMqloQFmzYpOIbVlLatX73Y3390WACsUNuK+052ERLZjBnPmRKcQqS+nnlr62RLpCfeCrVixaXdf1pMZADDTaQDpmWOOgb33jk4hUl8mToQjjohOIbWiB9P/0NMC4L6wX2EkPbRgSaQyTj01OoHUis2bf9WTL+tRAbBC4Y/AI/0KJPVv+HA4+eToFCL1acYM7awpPfGALVnyYE++sGczAADuv+hzHEmHU06BAQOiU4jUp4EDtRhQds/s1p5+ac8LQC8OKimUycBZZ0WnEKlv551X+lkT2RmzHr9Z7/kzadCgArC2D3EkDaZNgwkTolOI1LcJE0r7Aoh0bw2rV/f4qr0eFwBbuLAD98V9yyR179xzoxOIpMN550UnkOT6VU8u/9uqt3NJP+/l10saHHSQLlESqZajjoIDD4xOIUnkfktvvry3BeCnQGcvv0fq3ateFZ1AJF004yYv1cHgwZUrAFYorMb9173LJHVt9GjI5aJTiKRLa2vpnhsiW5ndbgsXPt+bb+nLctKb+vA9Uq/OOkv3KxeptqYmOOOM6BSSJMVir8fm3heAhoafAl29/j6pP83NuvRPJMq555Z+BkVgEwMH9nqNXq8LgLW1PQUs6+33SR066yztTCYSZdgwOP306BSSDHm77bbnevtNfdtRwv3GPn2f1I8BA7QQSSTa+eeXdgiUdHNf0Jdv61sB6Oq6EejxtYZSh047rbQAUETijBoFs2dHp5BYnQwceHNfvrFPBcDuuGOlNgVKscbG0jsPEYn3mtdAQ0N0Coli9su+TP9DX2cAADKZ/+7z90ptmzULxo+PTiEiUNoeuKUlOoXE+WFfv7HvBaCx8WbghT5/v9SmhgZ47WujU4jIti64QDcJSqe1bNjQ5xv19fkZY4sWvYBZr3YdkjowezZMnBidQkS2NWlSaXMgSZubbfnyDX395v5VRvcb+vX9UlsaG+HCC6NTiEh3Lr5YawHSp19jcP8KwJgxtwGP9+sYUjtOOUW3/BVJqr33Lq3PkbR4jBkz8v05QL8KgC1Y0IX79/tzDKkRjY069y+SdBdfrK2508LsOzZ/frE/h+j/qpGGhusB7/dxJNlOO03v/kWSbs89Yc6c6BRSeU4/p/+hDAXA2tr+Aizv73EkwQYOLK0yFpHku/DC0s2CpH65F6y9/eH+HqY81424f7ssx5FkOussGDMmOoWI9MT48bpTYL3LZK4vy2HKcRDgx0Cv7kMsNaK5ubTTmIjUjgsv1J0C69dqhgzp9a1/u1OWAmCFwjpAiwHr0atfDSNHRqcQkd4YORLOOy86hVTG9XbLLevLcaDybR2VyXwVLQasL3oREaldKu/1KZP5ZtkOVa4DWVvb/cCych1PEkDTiCK1S6fv6o97fstYWxbl3jz6v8p8PImihUQite/ss2HcuOgUUi5m15bzcOUtAIMG3QQ8XdZjSozXv16XEonUugEDtH13/XiSMWN+Ws4DlrUA2MKFHcB15TymBNhnH20pKlIvTj21dLMgqXX/ZQsWdJbzgOW/f2RT01eAjrIfV6rnkkt0UxGRepHJlGb0pJZ1kMmU/c112QuALVr0NHBjuY8rVXLwwXDyydEpRKScslk46KDoFNJ3P7C2tqfKfdDyzwAAmF1TkeNK5b35zWAWnUJEyskM3vSm6BTSd1+qxEErUgCsvf1uYGklji0VdMQRcOyx0SlEpBJOOKH0My61ps3y+XsqceDKzAAAmH2hYseWytA7BJH6prUAtce9YjPqlSsA06f/DCjbhgVSYccdB0ceGZ1CRCrpmGPgqKOiU0hPmf2JbPaXlTp8xQqAzZ9fxF2zALXiDW+ITiAi1fDmN0cnkJ4qFv/T5s8vVurwlZsBAFi79nvA3yv6GNJ/J54Ihx4anUJEquHww2Hy5OgUsnt/Z+3aH1fyASpaAGzFik2YVWT1opTR614XnUBEqumCC6ITyO59zlas2FTJB6jsDABAR8d1wKqKP470zStfCa94RXQKEammo44qzQRIUj2H+7cr/SAVLwC2bNla4MuVfhzpI737F0mn1742OoHsjPsXrFBYV+mHqfwMAEBDwxeA1VV5LOm5Aw8srf4XkfSZMgX22y86hbzUauCr1XigqhQAW7x4De5fqcZjSS+cdZZ2/RNJKzM488zoFLIjs89boVCVN8zVmQEo+TyaBUiO5mbI5aJTiEikWbNKrwWSFKspFqv2ZrlqBWBLo/latR5PdmPmTP3gi6Rdc3PpRkGSFF+o1rt/qO4MAGQyXwCer+pjSvdOOy06gYgkwemnRyeQklU0NFT1svmqFgBra3uW0qkAiTRhgm4NKiIlhxwC48ZFpxD3q2zx4jXVfMjqzgAAW7YHLvt9jaUXTjghOoGIJMnxx0cnSLsnGDas6pfLV70AWKGwDrNPV/txZRsqACKyrRNPjE6Qdp+yW25ZX+0Hrf4MAMDo0V8DHgl57LRrbNTdwERke8ccA5mY4UB4lDFjvhnxwCH/x23Bgk7gUxGPnXr77AMDB0anEJEkGTQI9torOkU6uf+/LWNi1cVVvjFjvgv8Iezx00o/5CLSHb02VJ/Z78lmfxj18GEFwBYs6CKTeW/U46fW8OHRCUQkiUaMiE6QRu+1+fOLUQ8eetLH2tryuP8kMkPquEcnEJEk6uqKTpA2P7b29iWRAeJXfTQ2fhDYGB0jNdZU9TJTEakVa9dGJ0iTDbh/JDpEeAGwxYv/itkXo3Okxl//Gp1ARJLoEV2YVUWftULh0egQ4QUAgI6OK4AnomOkwlNPwaOPRqcQkSR58EF45pnoFGnxD5qaPhMdAhJSAGzZsrXAx6JzpMbPfx6dQESSRK8J1eP+YVu06IXoGJCQAgDAjBnfwf130TFS4dZb4bHHolOISBL89a9w223RKdLiTgqFsMv+dpSYAmDz5xe3XBaoZeqVtnkzXH45rK/6zpMikiTr1sEnPlF6TZBKc8zeYwka4xJTAACsvf03wI3ROVLh0Ufhssu08lckrdauhQ99CP72t+gkaXGDtbf/NjrEthJVAAAw+zCgt6bVcP/98Pa3w1/+Ep1ERKrpz3+Gt70NHnggOklarMPs36ND7MiiA3THc7nLgKuic6RGQwOcfTa84Q0wZEh0GhGplLVr4TvfgZ/9DIphG9Cl0Xssn/9SdIgdJbMAZLONmN0JTI7OkipDh8I555Q+Ro6MTiMi5bJqFdx8M/zkJ1r7U32/ZcyYk2zBgsRttZjIAgDgudyRwO+ApugsqdPYCFOnwuzZpduE6u6BIrWnowNWrCit8F++XAv9YmzG/TgrFP4vOkh3ElsAADyXuwq4LDpHqg0YAEccUSoCU6fCpEnRiURkZ554ojTor1gBv/0tbNgQnSjtPmH5/H9Eh9iZZBeAKVMGM2jQH4ADo7PIFpMmwaGHwstfXvo48EDNEIhE2LgRHnqotIj3L38pLep9/PHoVPKiB3A/ygqFxN7rJtEFAMBzuRlAnhrImkqZDOy7b6kM7L8/7L03TJhQure4ioFI/3V0wD//Wfr4xz9KG/f85S+ly/e0kC+pirjPsEJhaXSQXamJQdVzuW8Cb47OIb00ZkypCGz9GD8eRo+GUaNKH8OHRycUibdmTWmR3rPPwnPPle7XsXWw/+c/S5+XWvM1y+cvjQ6xO7VRAGbOHEFX133A3tFZpIwaG0tFYPRo2GOPF8vB0KEwbNiLvw4Z8uKfBw+OTi2ycxs2lC61W7fuxY9t/7x1kF+1qnTznVWrtDiv/jyB+2FWKKyODrI7NVEAALylZR7u2iUw7RobS0Vg6FBobi4VgwEDSh9bfz9wYOnvu/v9kCGl0xZNTTBoUOmYQ4eWfh04sPR1Ur86O0tT6lAakKF0Ln3TptJ0+gsvlP6+s7P09939fu3a0q9bf79+/YsDfVfirvSSanM/xwqFn0bH6ImaKQAAns3ejNk50Tmkzpm9WAoGDy5tlASlz9k2PzJby8S2f97273f8eoCZM+GVr6xM7lr3+99DPr/957YOylu5b//n7v5+68C+eXNpcIfS5zwxW7BL/brR8vlXR4foqcboAL3S1XUpjY3TgDHRUaSOub94j4Ry3yvhhRdUAHbmJz+BpYleMyWyK0/R1PSu6BC9kbx7AeyC3XHHE8Al0TlE+uz3v9c70e64w733RqcQ6SvH/RJbtOjp6CC9UVMFAMDy+Z8B10XnEOmT1avhT3+KTpE8995bWg0vUpu+YoXCrdEheqvmCgAAQ4e+H/hzdAyRPlm0KDpB8tx+e3QCkb66n40bPxwdoi9qsgDYLbesx+wCoDM6i0iv5fOlVedS0tkJv/51dAqRvugAXmfLl9fknss1WQAArL39btw/Hp1DpNfWrtVit20tWfLiyn2R2vJRy+fviQ7RVzVbAADIZj8LtEfHEOm1H/5QiwGh9G/wox9FpxDpPffbyeeviY7RHzVdAGz+/CJmFwPaK1Nqy8MPw113RaeIt2xZaW97kdryDF1drzeo6RZf0wUAwNrb/wG8NTqHSK/dcEO6ZwHc4Qc/iE4h0heXbLksvabVfAEAsHz+ZuD66BwivfKnP6V79fvChfDAA9EpRHrH/dotl6PXvLooAAC4vxu4PzqGSK9ce235dxusBWvXwje/GZ1CpLf+wLBhH4gOUS51UwCsUFhHV9fZgHYTkdqxenU6B8Lrriv9t4vUjlWYnWu33LI+Oki51E0BALAlSx4ELqbGF2ZIytx6K9xxR3SK6vn1r+GXv4xOIdIbReAia29/ODpIOdVVAQCwfP7nwKejc4j0mDt89rPwRM2vKdq9f/4TPve56BQiveP+CcvnfxEdo9zqrgAAMGPGx3BfGB1DpMfWrYNPfOLFe9XXow0b4PLLt799r0jSud/O2LGfio5RCbb7L6lNPmfOKDo7fwfsH51FpMcmT4Yrr4TG2rpT925t3gwf+xj89rfRSUR641EymWOtra0u95qpzxkAwG677TngXKBuFmxICqxYAVddVV/7A7jD5z+vwV9qzUbMzqvXwR/quAAAWD5/D+5vi84h0ittbaXz5F1d0Un6r6sLPvMZuO226CQiveP+Dmtvvzs6RiXV7SmAbXkudy2gIiC1ZcoU+PjHYeDA6CR909FROud/553RSUR668uWz787OkSl1fUMwL8MGvQeQK9CUluWL4cPfhCercEZyJUr4f3v1+AvtWgZzz9fN5v97EoqZgAAfNq0sTQ2LgcOiM4i0isjRsBHPwrHHx+dpGfuvhuuuAJWrYpOItJbj5DJTLG2tqeig1RDagoAgE+ffigNDcuAPaKziPSKGbzmNXDxxck9JdDRAddfDwsW1NciRkmL54CTLJ9PzQ0qUlUAADyXmwHcBiT0VVRkF8aOhXe+E2bMiE6yveXL4ctfhiefjE4i0hedmM219vb26CDVlLoCAOAtLa/F/Qek9L9f6sCUKfD618PLXx6b44EH4Dvfgbvuis0h0neO2eutvf2G6CDVltoB0HO5y4GPR+cQ6Zfjj4cLLoAjjqju4/7hD/D978P//m91H1ek3Nw/ZoXCFdExIqS3AICRy32H0s2DRGrbpEmQy8Hs2TBhQmUeY+XK0k2LFi6Eh+vqniiSXtdbPv+m6BBRUlsAAHzy5CaGD18ItEZnESkLMzjkEDj66NLHK17R90WDHR1w773w+9+XPh54QIv7pJ4UGDNmji1Y0BkdJEqqCwCAz507nI6OpbhXeQ5VpAoaG0szApMmwcSJpd8PHvziB5Ru0rNhA6xfX1rE9/e/w9/+Vvr95s2x+UUq437cp1qhsDo6SKTUFwAAz2ZfhtmdwPjoLCIiUlFPYDbF2tsfiw4SLR07Ae6GFQqPAqcBa4KjiIhI5awC5mrwL1EB2MLy+RW4nwKsi84iIiJl9wLuZ1o+f090kKRQAdiGFQp3YnYWsDE6i4iIlM0G3E+3QmFpdJAkUQHYwZadoM4GOqKziIhIv20C5lmhUIgOkjQqAN2wfP424HWAlkCLiNSuLtwvsnz+F9FBkkgFYCcsn78ZeDNQjM4iIiK95ri/zQqFH0cHSSoVgF2wfP57uL87OoeIiPSKY3apFQrfig6SZCoAu2GFwlcxe190DhER6bGPWHv7f0WHSDoVgB6w9vZrgE9G5xARkd1wn2/5/GeiY9QC7QTYC57NfhizT0fnEBGRbphdZe3tH4mOUStUAHrJc7nLgE+jfzsRkaRw3D9khcLno4PUEg1ifeAtLW/H/avoFIqISDQH3mv5/Jeig9QaFYA+8mz2Asy+AzRGZxERSaku3C+xQuE70UFqkQpAP3gudxbwY6CPN1wXEZE+6sT9AisU/ic6SK1SAegnz+VOBf4HGBydRUQkJTqA8y2f/3l0kFqmAlAGnsvNAG4BhkVnERGpcy/gfrYVCoujg9Q6FYAy8dbW4ygWfwWMis4iIlKnVpPJnGptbcujg9QDFYAy8paWY3D/JTA+OouISJ15Aphr+fw90UHqhS5jKyNrb78b9xOB+6OziIjUkfswm6LBv7xUAMrMCoVHcZ+Kez46i4hIHWijoWGqtbc/Fh2k3qgAVIAVCquB2cDXo7OIiNQss+/w/PNzbfHiNdFR6pHWAFSYZ7Pvwexq9G8tItJTjtknrL19fnSQeqZBqQo8m331ll0DB0VnERFJuE7c32yFwvejg9Q7FYAq8VxuKvBTYEx0FhGRhFoFnGP5/K+jg6SBCkAV+fTpB9HY+AvcD4rOIiKSMI/gfqoVCn+ODpIWWgRYRbZkyYOYTQPujM4iIpIgy9i8+QQN/tWlAlBl1tb2FO7TMLsqOouISAJ8nTFjWuyOO1ZGB0kbnQII5NnshZhdBzRHZxERqbKNmL3T2tuvjw6SVioAwTybPQqzm4D9o7OIiFTJ33A/zwqF/40OkmY6BRDMCoX/Y8CA44DborOIiFSc+0I2bTpKg388FYAEsNtue458fi7uHwGK0XlERCrAMbuKbPZ0W7p0VXQY0SmAxPFs9nTMbgBGRmcRESmT5zF7g7W3/yQ6iLxIBSCBtuwXcBPuR0RnERHppz9gdq61tz8cHUS2p1MACWRLljxIY+MU4FvRWURE+uE6hg6dosE/mTQDkHDe0nIO7t8ARkdnERHpoWeASyyf/1l0ENk5FYAa4K2t4+nquh6zudFZRER2Y/GW8/3/iA4iu6ZTADXA2tqeolA4Dff3Ah3ReUREutGB+0eYMWOOBv/aoBmAGuPZ7CvIZH6oBYIikhhmf6JYfJ0VCv8XHUV6TjMANcYKhT9SLB4PfAnw6DwikmoOfJ0hQ47V4F97NANQwzyXmwNcD0yIziIiqbMSszdbe/st0UGkbzQDUMMsn78N92MArbQVkWpaQCZzhAb/2qYZgDrhLS3zcP8qMDY6i4jUrSeAd1k+f1N0EOk/zQDUCWtvX0BT0yuAG6KziEjdceAGBgx4hQb/+qEZgDrkudx5wFeAPaOziEjN+zPub7FCYWl0ECkvzQDUIcvnb6Kh4RBKVwp0RecRkZq0CbOrcD9ag3990gxAnfOWlmNwvw44NjqLiNQIs98Dl1h7+93RUaRyNANQ56y9/W6ef/4k4MPA+ug8IpJo64D3MH36sRr8659mAFLEW1r2xv1K4KLoLCKSMGa3Av9m7e2PRUeR6lABSCHPZrOYfRl4RXQWEQn3Z8zeY+3ti6KDSHXpFEAKWaFQwP3oLTcXWhOdR0RCrMb9vbgfocE/nTQDkHLe2jqeYvFy4BKgITqPiFTcZuA63OdbofBMdBiJowIgAHg2ewhmnwDmRWcRkYpZTFfX+23Jknujg0g8FQDZjudyrcDngSOjs4hI2dwPfMjy+V9GB5Hk0BoA2Y7l822MGTMZ9zcCWg0sUtsewexiZsw4QoO/7EgzALJTPnlyE8OHvxGYj245LFJLVuL+eQYPvsYWLuyIDiPJpAIgu+WzZw+hs/PfMPsIMDI6j4js1FrMvkZHxxW2bNna6DCSbCoA0mM+deowmpreidmHgT2i84jIv5QG/s7Oq2zp0lXRYaQ2qABIr6kIiCRGaeAvFj9thcLq6DBSW1QApM985swRdHW9B3gPMCo6j0iKPIvZNQwc+CVbuPD56DBSm1QApN987tyBbNz4auCjwCHReUTq2JOYXUcmc7UtXqxdPKVfVACkbHz+/AxLlpyG+4eBqdF5ROqG2YMUi19l8OBrtapfykUFQCrCc7mpuH8As7PQfhMifdWO+9UUCr8w8OgwUl9UAKSifObM/besE3gzMCQ6jw8hfuwAAAOiSURBVEgN6AR+htnnrL39t9FhpH6pAEhVeDY7BrN3AJcC46PziCTQk7hfy4AB/2WLFj0dHUbqnwqAVJXPmzeAZ589C/e3Aq3oOSiyAvg67t+zQmFjdBhJD734ShhvbX057m/C/RJgdHQekSpaA/yYrq6v6M58EkUFQML5GWc0s3btPMzeBExDz0upTw78GriejRsX2PLlG6IDSbrphVYSxadP34dM5nWYvQ3YLzqPSBn8A7PvA9+w9vaHo8OIbKUCIIm0ZU+BmcBFuJ8NDI3OJNILa4Gf4H4D2Wy7zZ9fjA4ksiMVAEk8z2YHkcnMwv0i4CxgQHQmkW50YHY77gtwv9kKhXXRgUR2RQVAaorPmTOKzs5XAecDM4DG4EiSbptxzwM3snnzTboTn9QSFQCpWVvKwOmYzcN9FjAwOpOkQhdwJ+4LaGj4kbW1PRUdSKQvVACkLng2OxI4nUzmLNxnA8OjM0ldWQMswv1nNDbeqhvxSD1QAZC64/PmNbBy5RQymdNxPwM4LDqT1KS/Aosxu5XRo2+zBQs6owOJlJMKgNQ9z+UOxv0UzGYBWXRPAuneOswKwCI2b/6VLVnyYHQgkUpSAZBU8XnzBrBy5UmYzcJ9FmbHAA3RuSREF7AC90VkMrezZs1yW7FiU3QokWpRAZBU82x2KHAimczJuE+ltBOhFhPWp83APcAyzJbS2blYq/YlzVQARLbhs2cPoavrJIrFk4ETtnyMDI4lfbMKuAuzu3C/g6FDl9stt6yPDiWSFCoAIrvgYEyffgiZzAmYnUipEBwONAVHk+1twuyPFIt3AXcCd1EoPGCl/fdFpBsqACK95NlsI2YHA5O3fBwGHAOMCg2WHuuAB4D7cV8BrKCjY4VuriPSOyoAImXis2btxaZNhwGHY1b6FV4JDItNVrM6gIeB+zC7H7gP9/uZMeNP2ltfpP9UAEQqyMHIZvcGDgQOAA4kkyn93v0AtGHRGsz+ivtDwEO4P4zZQ5g9ZO3t/4gOJ1LPVABEAm3ZwXAiZvtitg8wEfdJwATMxuM+FhgHZEKD9l4XsBKzlRSLT2L2JGZ/o1j8O2aP4/4YjY1/1456InFUAEQSzufPz3DHHWPp6hpLQ8NYisVRuI+kdHVC6SOTGYn7YGAEpbslDsGsGfeBlE5BbHvTpAZeOvPwPKVBe6vNlG5puxHYALwAdFJ6x76BYnE1UPowWwWsJpNZRVfXShoaVjJt2kpN04sk2/8PTzE1gtrfvj8AAAAASUVORK5CYII=;fontSize=13;" vertex="1" parent="1">
          <mxGeometry x="445.08" y="180.01" width="18" height="18" as="geometry" />
        </mxCell>
        <mxCell id="-l0L1RNfN-XOFM-DuLYb-24" value="" style="shape=image;verticalLabelPosition=bottom;labelBackgroundColor=default;verticalAlign=top;aspect=fixed;imageAspect=0;image=data:image/png,iVBORw0KGgoAAAANSUhEUgAAAgAAAAIACAYAAAD0eNT6AAAACXBIWXMAAWf0AAFn9AFjKaEnAAAAGXRFWHRTb2Z0d2FyZQB3d3cuaW5rc2NhcGUub3Jnm+48GgAAIABJREFUeJzt3XfYZVV59/HvCjMwKEiRXgdFOkqTqgKiCCLRVxEswYJoJGriqzHGYCNcbzRRY0yzgSjEAopdShREBESp0ovC0HuvM8Ow3j/WHhzHKc9znnPOvfbe3891PdcMA8z5zYHn3Pe+99prgSRJkiRJkiRJkiRJkiRJkiRJkiRJkiRJkiRJkiRJkiRJkiRJkiRJkiRJkiRJkiRJkiRJkiRJkiRJkiRJkiRJkiRJkiRJkiRJkiRJkiRJkiRJkiRJkiRJkiRJkiRJkiRJS5eiA0iamAzLA89c4Gv1hf56/td0YAblnwd4BrAM8GfASs2vLfj3HwMeb37+APAkMA94cKG/Pxe4ZxFfdy3416n885IqZwMgVSDDssAGwExgo+bH+T9fj1LYnxaTbtIeoTQDNwOzgOubH+f//KYEc4KySWrYAEhjksuV+ebA1sBzKMV9frFfl3KF3gfzgFv5Q2NwPXANcClwVSqTBkkjZgMgjUCGVYAtge2BLRb4+YzIXC3wBKUZuBy4Arig+fn1CXJkMKlrbACkKcqwMbArpcBvDTwPWDU0VPfcA/yWMiW4EDg7we9jI0ntZgMgTUKGaZQC/wJKwd+dcu9e43cHcB5wFnA2cF6C2bGRpPawAZCWIJcV9DtSCv5uzdfyS/yXFGUucAmlGTgL+HmCu2MjSfWyAZAW0Fzh7wrsA+xLudr3+6SdMnARcErz9atU1hhIwg82iQxrUEb5+zdfK8cm0og8Avwc+BFwcoKbgvNIoWwA1Du5bIqzDaXYvwLYDr8X+ug64MeUhuBM9yZQ3/ihp15oNtrZGzgQeCXl3r403wPAD4ATgJ/aDKgPbADUWc2V/i7Aa4HXU7bOlZbmfspU4NvAKW5MpK6yAVCn5LKb3q6Uon8QsGZsIrXcfZTbBDYD6hwbAHVCLlf6BwOvoSzqk4btDuBE4LgE50aHkabKBkCtlcvJdgcBf0V5XE8al6uArwJHu9eA2soGQK2Tyw587wD+gvackKdumg38EPgScJrnFahNbADUCs3hOq8F3gNsFRxHWpRrgaOBYxLcGR1GWhobAFUtw4uBw4A/pzzKJ9VuDuWRws+nsvGQVCUbAFWnWcm/H3A4sFNwHGkqLgY+C3zTJwhUGxsAVSPDisAhwPvwhD11y22UdQKfS+XRQimcDYDCZVgLeCfw15R7/VJXPQQcA3wmwY3RYdRvNgAKk8t+/O8DXgdMD44jjdNc4PuURuDX0WHUTzYAGrsMzwf+kXLkrtR3JwEfS3B+dBD1iw2AxiaXx/c+ChyA/+9JC/sZ8MEEF0YHUT/4IayRy7A58CHgjZQV/pIWLQM/AT6c4LfRYdRtNgAamQwzKYX/bZST+SRNzJOUcwc+nOCa6DDqJhsADV0uj/AdTnmkb1pwHKnN5jcCH0rw++gw6hYbAA1NhhWAvwX+HlguOI7UJXOBzwMfTfBAdBh1gw2ApqzZue8vgH8B1gyOI3XZPcCRwH8mmBcdRu1mA6ApybAHZavTbYKjSH1yEfDeBGdGB1F7uSJbA8mwfoZjKYedWPyl8doW+EWGH2V4VnQYtZMTAE1KhqcDHwA+CMwIjiOpnD74BeAjCR6MDqP2sAHQhOXyHP+ngLWjs0j6E7cC70twfHQQtYMNgJYqwzrAfwGvis4iaalOAg7zsCEtjWsAtFgZUoZ3AFdh8Zfa4uXAlRk+mN2AS0vgBECLlOE5wJeB3aOzSBrYOcDbE1wRHUT1cQKgP5Jhei4L/C7F4i+13a7AxRk+md2cSwtxAqCnZNiFctW/ZXQWSUN3OXBognOjg6gOTgBEhhkZ/hU4C4u/1FVbAmdn+LTTAIETgN7LsAXwddzMR+qTy4E3JLgkOojiOAHoqQVW+J+HxV/qmy2BX2f4m+yFYG/5H76HMqwBHA28IjqLpHD/C7wlwW3RQTReNgA9k2Fv4Ku4m5+kP7gTeFuCH0cH0fh4C6AnmoV+nwNOweIv6Y+tAfwwwxczPC06jMbDCUAPZNgKOAHYPDqLpOpdBhzk5kHd5wSg4zK8jvLcr8Vf0kRsRVkgeGB0EI2WDUBHZZiW4ZPANyhH+ErSRK0AHN/cEpgeHUaj4S2ADsqwGvAtYK/oLJJa70zKLYHbo4NouGwAOibD9sCJwIbRWSR1xi3AAW4j3C3eAuiQZmOfc7D4SxqudYEzMvxNdBANjxOADsgwA/gP4NDoLJI67zjgnQkejQ6iqbEBaLkMawE/BJ4fnUVSb/waeGWCO6KDaHA2AC3WHOTzE2BmcBRJ/XM9sF+CK6ODaDCuAWipDC8GzsbiLynGRpTjhfeMDqLB2AC0UIY3AycDK0dnkdRrqwCnZHhTdBBNng1AizRH+H4cOAZYNjiOJEH5LPpqho97tHC7+B+rJXL5JjsKODg6iyQtxteAdySYEx1ES2cD0AK5jNm+C+wRHEWSluZ04DUJ7o8OoiWzAahchnWAn1JW/EtSG1wGvNTtg+tmA1CxDBsApwEbR2eRpEm6HnhJguuig2jRbAAqlcsjNqdRfpSkNrqR0gRcGx1Ef8qnACqUYXPgLCz+ktptA+CXGbaODqI/ZQNQmQzbUY7fXCc6iyQNwZrALzLsFB1Ef8wGoCIZdqOsoF0tOoskDdEqwKnNZ5wqYQNQiVwe8TsZWCk4iiSNwkrA/2Z4aXQQFTYAFciwH6X4rxidRZJG6GnADzO8PDqIfAogXHOoz0+AGdFZJGlM5lCOEz4lOkif2QAEyrAL8L/ACtFZJGnMHgX2SfDL6CB9ZQMQJMM2lAV/q0RnkaQgD1D2CTg/Okgf2QAEyLAVcAbwzOAokhTtbmCPBJdHB+kbG4Axy2Vb3zOBtaOzSFIl7gRelODq6CB9YgMwRhnWpxT/mcFRJKk2N1GagFnRQfrCxwDHJJfdsH6KxV+SFmV94KfZ6ejYOAEYg1wW+p2FR/pK0tJcCrwwlQWCGiEnACOWYTrwbSz+kjQRWwM/yLBsdJCuswEYoVwmLEcBe0VnkaQW2R34QnSIrrMBGK2PA2+KDiFJLfTWDB+JDtFlrgEYkQyvB76O77EkDSoDb05wXHSQLrI4jUAu46tTgeWis0hSy80F9k1wWnSQrrEBGLIMmwNn4xa/kjQsDwAvSHBZdJAusQEYogyrA78Cnh2dRZI65npglwR3RAfpChcBDkmG5SnH+lr8JWn4NgK+n721OjQ2AMPzn8Dzo0NIUoftDHw5OkRX2AAMQYbDgEOic0hSDxyc4dDoEF3gGoApyqUjPQPHUpI0LrMp2wWfFx2kzWwApqA54Od8YL3oLJLUMzcB2ye4KzpIW3kLYEAZpgHHY/GXpAjrA8c3n8UagA3A4D5F2fBHkhRjT+D/RYdoK28BDCDD64BvRueQJJGBg1I5dVWTYAMwSRk2A34DrBidRZIEwMPAzgkujw7SJjYAk5BhBqX4bx2dRZL0R64AdkjwWHSQtnANwOT8KxZ/SarRFsAnokO0iROACcqwD3ASvmeSVKsM7J/KtuxaCovZBGRYA/gtsFZ0FknSEt0JPNdDg5bOWwBLkUuTdDQWf0lqgzWAY7IXuEtlA7B07wFeER1CkjRh+wLvjA5ROzukJchlUcn5lKN+JUnt8TiwY4JLo4PUygnAYjRnTn8Di78ktdEM4BvN49taBBuAxfsk8LzoEJKkgW0FHBkdolbeAliEDDsB52CDJElt9yTl6OBzooPUxgZgIRmWBS4EtozOIkkaissoRwfPiQ5SE69w/9ThWPwlqUu2Aj4YHaI2TgAW0Bz0czFlAaAkqTtmA9ulcmaAcALwlFzei6Ow+EtSFy0HHJ2te0+ZFh2gIu8GdosOIY3ArcDpwLnA1cC1wIMJ7gPIsArwDOA5lCnYLsCLcfdLdc/OwF8Cn48OUgNvAQAZNqCcI71CdBZpSO4Gvg4cm8qi1knLsCPwJuANlCZB6oIHgC0T3BIdJJoNAJDLKX/7RueQhuBm4FPAUQkeHcZvmEtjfBjwfmDNYfyeUrAfJHhVdIhovW8Acrm6+Xp0DmmK5gL/ChyZ4JFRvEAutwmOBN4FLDOK15DG6LUJvhMdIlKvG4AMK1Luia4dnUWagmuAg1J5gmXkmo2yjgc2HMfrSSNyM7DpsCZlbdT31ZAfwuKvdvs+sMO4ij9Agl8D2wKnjus1pRFYj57vDdDbCUCGZ1EW/nlQhNrqa8ChCZ6IePFcniL6InBIxOtLQ/AYsHmCG6KDROjzBOBTWPzVXkcBb40q/gDNa78d19CovZanHPzWS72cAGTYA/h5dA5pQN8HDkgwLzoIQIbpwI+BvaOzSAPIwIsSnBUdZNx61wA0u0D9Btg+Oos0gN9RDjV5MDrIgprNhC4EZgZHkQZxEWUtzZPRQcapj7cADsXir3aaCxxYW/EHaHYVfCOVTCWkSdoWeHN0iHHrVQPQPMd8RHQOaUCfTeVKpUrNeetfjM4hDegTGVaKDjFOvWoAgI/i/uZqp1uBf4wOMQGHU7YhltpmTcqj4b3RmwYgw0bAe6JzSAP69Kh2+BumBPcDn43OIQ3ovc3ZML3QmwYA+AiwbHQIaQD3AF+KDjEJ/0U5cEVqm+WAD0eHGJdeNAC5HHN6cHQOaUDfaMPV/3ypFP8TonNIA3pLhmdHhxiHXjQAwMcou5ZJbXRcdIABHBsdQBrQdMrEuPM6vw9Ahi2AS+lPs6NuuQNYO5XNSlqj2W/jDmC16CzSAOYBWyW4KjrIKPWhKB5BP/6c6qbT21b8AZoNVX4RnUMa0DKUp8Y6rdOFMcM2wGuic0hTcG50gCn4VXQAaQoOyrBVdIhR6nQDQHluuvO3OdRpbR5Btjm79GfAx6NDjFJnG4AMzwdeEZ1DmqLfRweYgmujA0hT9OpctgnupM42AMCRePWv9rs/OsAU3BcdQJqiRDt24BxIJwtkLof9nB+dQxqC5RLMiQ4xiAwzgMeic0hDsG2Ci6NDDFtXJwDvjw4gDUNbi39jdnQAaUjeGx1gFDo3AciwHnAdZTMHqdVSi79Hc8neq/PV1VlzgWcnuCk6yDB1cQLwf7H4S5KGZzrwrugQw9baq4tFyfAM4EZ6dqazussJgFSNB4H1U/mxE7o2AXgHFn9J0vA9AzgkOsQwtfbqYmG5jGh+R4/Oclb3OQGQqnIDsHGCJ6KDDEOXJgAHYfGXJI3OhsAB0SGGpbVXFwvLcCEd3rFJ/eQEQKrOBQl2iA4xDJ2YAGTYE4u/JGn0ts+we3SIYehEAwD8VXQASVJvHBYdYBhaO16cL8NqwM3ActFZpGHzFoBUpTnAegnuig4yFV2YAByCxV+SND7LAgdHh5iq1l5dzJfhSmCz6BzSKDgBkKp1NbB5ghwdZFCtngBk2AOLvyRp/DYFdosOMRWtbgCAt0cHkCT11qHRAaaizePFVYFbKGeOS53kLQCpao8B6ya4LzrIINo8ATgYi78kKc7ywOujQwyqzVcXlwJbReeQRskJgFS9SxI8LzrEIFo5AciwCxZ/SVK85+aWbg3cygYAeFN0AEmSGq3cE6B148UMywC3AmtEZ5FGzVsAUivcTtkZcF50kMlo4wTgxVj8JUn1WAt4QXSIyWpjA3BgdABJkhZyUHSAyWrVeDHDdOA24JnRWaRx8BaA1Bp3AeskeCI6yES1bQLwEiz+kqT6rE7Znr412tYAOP6XJNWqVTWqNePFXI5fvI2yBbDUC94CkFrlPmCtBHOig0xEmyYAL8PiL0mq1yqUJ9VaoU0NQKtGK5KkXmpNrWrFeLEZ/98FPCM6izRO3gKQWuc+YI02PA3QlgnAblj8JUn1WwXYOTrERLSlAdg3OoAkSRPUiprVlgZgn+gAkiRNUCtqVvX3FzOsB9xIC7JKw+YaAKmVMrBuKo+uV6sNE4B9aPGHoCSpdxKwd3SIpWlLAyBJUptUX7uqvrLOMI3y+N/K0VmkCN4CkFrrPmD1BPOigyxO7ROAXbH4S5LaZxVgx+gQS1J7A9CKRykkSVqEqmtY7Q1A9fdQJElajKprWLX3FzM8k3L/v9qM0qi5BkBqtSeB1VJZD1CdmicAu9LiDz9JUu/9GbBTdIjFqbkB2C06gCRJU1RtLbMBkCRpdKqtZVWO2Jvjf+8Hlo/OIkVyDYDUeo8BKyeYEx1kYbVOALbH4i9Jar/lgedFh1iUWhuAakcmkiRNUpU1zQZAkqTRqrKmVXl/MZcjFNeKziFFcw2A1Am3J1g7OsTCqpsAZHgOFn9JUneslWGj6BALq64BAHaJDiBJ0pBVdxugxgZgh+gAkiQN2fbRARZWYwOwdXQASZKGrLraVt0Cowx3Uw4CknrPRYBSZ9ydYPXoEAuqagKQYT0s/pKk7lktV7bAvaoGAHhudABJkkakqhpXWwNQ3T0SSZKGxAZgCWwAJEldVVWNq60BqKo7kiRpiKqqcdWsMG6OAH6I8qMkfApA6pjZwIoJ5kYHgbomAJtj8ZckdddywCbRIearqQHYKjqAJEkjVs06gJoagGq6IkmSRuQ50QHmq6kBmBkdQJKkEZsZHWC+mhqA6o5KlCRpyKqpdTYAkiSNTzW1ropHjJpHAB+jroZECudjgFLnPAEsn8qPoWopuBtQTxZJkkZlGuXgu3C1FN1qRiKSJI1YFTWvlgZgZnQASZLGZGZ0ALABkCRp3GZGB4B6GoAqxiGSJI1BFTWvlgZgZnQASZLGZGZ0AKinAVg3OoAkSWPiUwALWD06gCRJY7JadACooAHIsDzlS5KkPlix2QAvVHgDQCWdkCRJY/TM6AA1NADhb4IkSWMWXvtqaACcAEiS+ia89tXQAIR3QZIkjVl47auhAQjvgiRJGrPw2ldDAxDeBUmSNGbhtc8GQJKk8QuvfTYAkiSNX3jtq6EBWCU6gCRJY7ZqdIAaGoAZ0QEkSRqz8NpXQwOwXHQASZLGzK2AqeBNkCRpzMIvfmtoAMLfBEmSxiz84reGBiD8TZAkaczCL35tACRJGj8bACp4EyRJGrPwi98aGoDwN0GSpDELv/itoQEIfxMkSRqz8IvfGhqA8DdBkqQxC7/4tQGQJGn8bAAkSdL41dAAzIkOIEnSmM2ODmADIEnS+NkAUMGbIEnSmIVf/NbQAIS/CZIkjVn4xW8NDUD4myBJ0piFX/zW0ACEvwmSJI1Z+MWvDYAkSeNnA0AFb4IkSWMWfvFbQwMQ/iZIkjRm4Re/NTQA4W+CJEljFn7xW0MD8Hh0AEmSxiy89tXQANwbHUCSpDG7JzpADQ1A+JsgSdKYhdc+GwBJksYvvPbV0ADcHR1AkqQxC699NTQA4V2QJEljFl77bAAkSRq/8NpXQwMQPgaRJGnMwmtfDQ1AeBck1SrDMtEZpmBadACpYuGPwNfQAIR3QVLFVogOMAUrRgeQKhZ+8RveAKSyG9Ij0TmkSj0jOsAUtDm7NEoPJrcCfkp4JyRVamZ0gCnYKDqAVKkqal4tDcAt0QGkSm0aHWAKNosOIFXq5ugAUE8DcH10AKlS20UHmII2Z5dGaVZ0AKinAZgVHUCq1J7RAaZgr+gAUqWquOitpQGo4s2QKrRZbuE6gFxuXbgGQFq0WdEBoJ4GYFZ0AKlib4wOMIA2ZpbGpYqL3loagCreDKlSb871fK8uVbN50Zuic0gVmxUdAOr5ULkRmBcdQqrUc4BXRoeYhNcDG0aHkCr1BD4F8AcJ5uKjgNKSfDhDig6xNM3V/4eic0gVuymVJiBcFQ1A44boAFLFtgMOiQ4xAe8GtogOIVVsVnSA+WpqAFwHIC3ZJzOsHh1icTKsCxwRnUOq3KzoAPPZAEjtsRrwtRoXBDaZjgVWis4iVa6aWlfTB8k10QGkFtgXODw6xCJ8AnhxdAipBa6NDjBfTQ3ApdEBpJY4IsPbokPMl+Ew4O+ic0gt8dvoAPNVs6o4w3TgYWDZ6CxSCzwBvDXB/0SGyPAO4PPUdTEh1epxYEWfAlhI8yjgVdE5pJaYBhyb4X0RL54hZfgo8EUq+hyRKndlLcUf6vvGvSQ6gNQiCfhMhhMzrDyuF81lod8JuOJfmqxqxv9QXwPgOgBp8l4NXJDh5aN+oVxe6zLggFG/ltRBl0UHWFBtDYATAGkwzwJ+kuH7GbYZ9m+eYacMpwAnAusN+/eXeqKqGlfNIkCADOvglsDSVGXgZODLwEkJ5gz4m8wA9gfeDrx0ePGk3lo7we3RIearqgEAyHAXZcMTSVN3D3Aq8HPgXODaBLMX9Q9mWA7YBNgF2AvYmzGuLZA67s4Ea0aHWFCNDcDpwJ7ROaSOmkeZst0FPNT82oqULYbXpRzmI2n4TkvwkugQC5oWHWARLsEGQBqVZYANmi9J41PVEwBQ3yJAgAujA0iSNGQXRQdYWI0NwNnRASRJGrKzogMsrLo1AAAZbgXWjs4hSdIQ3JrKGpuq1DgBAPhVdABJkoakuqt/qLcB8DaAJKkrqqxpNgCSJI1WlTWt1jUA04H7gadFZ5EkaQoeAVau6RTA+aqcADRHA58fnUOSpCk6t8biD5U2AI0qRyaSJE1CtbXMBkCSpNGptpZVuQYAIMOqwN1UnFGSpCV4Elg1wQPRQRal2glAgnuBi6NzSJI0oPNrLf5QcQPQODk6gCRJA6q6htXeAJwSHUCSpAFVXcOqvr+ey3HFdwErR2eRJGkS7gXWSDAvOsjiVD0BaJ6d/Fl0DkmSJunUmos/VN4ANKoeoUiStAjV166qbwEA5HIs8C20IKskSUAG1k1wW3SQJal+AtC8gZdG55AkaYIurL34QwsagEbVj1JIkrSAVtSstjQA1d9LkSSp0Yqa1Yr76s3xwHcBK0VnkSRpCe4F1qz1BMAFtWIC0BwP/IPoHJIkLcX32lD8oSUNQOOE6ACSJC1Fa2pVK24BAGRYFrgdWCU6i9Qi84ALgV8CVwLXADdTDih5BFgGeDplt82ZwCbA1sDuwKbjjyu12t3A2m2ZALSmAQDIcDRwSHQOqXJPAKcCxwGnDHoaWYZ1gVcBBwM7DS+e1FlfSvCX0SEmqm0NwMtoyepKKcCDwH8Dn0tlWjY0GbYE/h54HeWMDkl/aq8Ep0eHmKi2NQDTKJsrrBadRarIXOBzwD8luG+UL5Th2cCngP8zyteRWugOyu5/Ve//v6A2LQKcfzjQd6NzSBU5F9guwQdGXfwBEvw+wauB/YAbR/16Uot8p03FH1rWADRas8JSGqEM/Duwe4LLxv3iCU4Cngt8Z9yvLVXq+OgAk9WqWwAAuaxavgVYMzqLFORx4A0JvhcdJJfPkI8DHw2OIkW6FVg/wZPRQSajdROAZsRyYnQOKcjDwP41FH+ABDnBxyhP57Ti0SdpBE5oW/GHFjYAjeOiA0gBHgP2TfCz6CALS3AM8K7oHFKQVtakVjYAqSx88ohg9clc4IAEZ0UHWZwEX8JbAeqfC1PZbKt1WtkANI6KDiCN0eHNwruqJTgSb9GpX1pbi1q3CHC+XLYuvQV4WnQWacROBvZLZeV/9ZrvzQuAZ0VnkUbsMWCdBPdHBxlEaycAzRtexUIoaYQeBA5tS/GHp74330KLMksDOr6txR9a3AA0vhwdQBqxw1N5xKhVUjl86JvROaQRa+34H1p8CwCeegb5Sjy1TN10JbB123YXmy/DOsDvgRnRWaQRuCKVMzJaq9UTgGYsenR0DmlEPtHW4g/QTC6+Ep1DGpFWX/1DyycAABnWAG4Clo3OIg3RDcDGbTlXfHEybEiZAiwTnUUaotnAegnujg4yFa2eAAAkuBP4YXQOaci+2vbiD5BKI3NadA5pyL7X9uIPHWgAGv8VHUAaogz8T3SIITo2OoA0ZJ+PDjAMrb8FMF+G84Hto3NIQ3Bxgm2jQwxLhhWBe4Dp0VmkITgvwY7RIYahKxMAgM9EB5CG5PToAMOU4CFKgy51waejAwxLlxqAbwM3RoeQhuCM6AAj0KmmRr01C/hudIhh6UwD0CyY+lx0DmkILokOMAIe3qUu+GwXFufO15k1APDUvcYbKXuRS230GLBCG88WX5IM2wAXReeQpuA+YIMED0cHGZbOTADgqXuNrd+cQb02q2vFv/H76ADSFH2xS8UfOjYBAMiwLnAdbgykdvpVgl2jQwxbs233XNwQSO00G9gowW3RQYapUxMAgFSOCD4hOoc0oE5dYczXbNvdyT+beuHrXSv+0MEGoOEjgWqrudEBRmhOdABpABn4bHSIUehkA5DgYuCk6BzSAFaIDjBCK0YHkAbwowSXRYcYhU42AI2PUjo3qU06WSRzWZPjscBqmwx8LDrEqHS2AUhwAR4SpPZZJzrAiHT1z6Vu+04zUe6kzjYAjQ/TzUeq1F1r5m7uY7FpdABpkp4EjowOMUqdbgCa+zbfic4hTdJm0QFGoIt/JnXbN1PHd7DsdAPQ+Agd2rpRvbBbdIAReEF0AGkS5tHxq3/oQQOQ4BrgW9E5pEnYMzrAMDWbAO0RnUOahGMTXB0dYtQ6txPgomTYGLgSmBadRZqAh4E1EzwaHWQYcjk7/dfROaQJmgtsmuD66CCj1vkJAECC3wFfi84hTdAKwKuiQwzRwdEBpEk4ug/FH3oyAQDIsCFlpLNcdBZpAk5NsE90iKlqnv+/GVg9Oos0AY8DmyS4KTrIOPRiAgCQ4Abg36NzSBO0d4ato0MMwcFY/NUen+lL8YceTQAActll7Wpg7egs0gR8I8Ebo0MMKpeT/64ANonOIk3AHZSr/wejg4xLbyYAAAkeomwRLLXBQRm2iQ4xBW/D4q/2+GCfij/0bAIAkEvT82tgh+gs0gScB+ycWrajZYZVKdO21aKzSBNwAbBj277PpqpXEwCA5j/w+6NzSBP0fOCd0SEG8G9Y/NUOGXhP34o/9LABAEhwJvDt6BzSBH0mw7bRISYqw+vx0T+1xzcS/Co6RITe3QKYL8NMyuZAHlGqNriGcivgvuggS5LhucA5wNOjs0gT8Chl05+bo4NE6OUEACDJMArFAAAMK0lEQVTBLOAz0TmkCdoEODlXXFgzrA/8mIozSgv5ZF+LP/R4AgCQy45rVwHrRmeRJugk4IAEj0UHWVCG9YDTcNW/2uNGYLPavpfGqbcTAIBU9lx3QaDa5OXAqRlWjg4yX4bNgbOx+Ktd3tvn4g89bwAAEhxPGVtKbfFC4OwMW0QHybAfcBawQXQWaRK+m+B70SGi9foWwHzNvcvLKTsFSm3xCPDXCb4y7hfO5UyNI4G/xc8Rtcv9wJYJbo0OEq33EwCAZu/nf4jOIU3S04GjM5yRYctxvWiGPYELgQ9g8Vf7fNDiX/jN22h2CDwT2C06izSAOcBXgX9OcN0oXiDDrsDhlHUIUhv9Atgzlc1/es8GYAHNPdUL8chgtdcTwHeBYylHCj8xld+sOUDr1cAhwIumHk8K8zjwvFT21BA2AH8il8OCjojOIQ3BXcCpwOnAL4HrlrbdaYZlKav69wD2ar6eNtqY0lgcnuCfokPUxAZgIc0H4IWM8Z6qNCazKVc/t1BOxrwfmEbZD+OZwIaUHTKXCconjcolwA4J5kYHqYkNwCJk2InyXLMfhJLUbk8CL+jrfv9L4lMAi5DKccH/Fp1DkjRln7b4L5oTgMVonnM+F9gmOoskaSAXAruk8pSMFmIDsATNUwHnA8tHZ5EkTcqjwPapnPeiRfAWwBIkuAL4u+gckqRJe5/Ff8mcACxFLu/RD4D9o7NIkibkBwleFR2idjYAE5BhdcpjJGtFZ5EkLdEdlA1/7ogOUjtvAUxAKhuqvAW3j5SkmmXgEIv/xNgATFAqO6r9Z3QOSdJifTbBSdEh2sJbAJPQPBr4G+C50VkkSX/kMuD5qez5rwlwAjAJqWyleiDwYHQWSdJTHgIOtPhPjg3AJCW4GngzrgeQpBpk4K0JrowO0jY2AANI8H3g09E5JEl8IsGJ0SHayDUAA8rloKCTgL2js0hST50GvCzBvOggbWQDMAW5HKF6PuUIVUnS+NxI2er37uggbeUtgClIcA/wauCx6CyS1COPA6+x+E+NDcAUJbgIeG90DknqkXelMn3VFNgADEGCLwFHReeQpB74QoKvRIfoAtcADEmGGcAZwE7BUSSpq84BXtzsyaIpsgEYogyrAb8CNo7OIkkdcz2wc4I7o4N0hbcAhqhZkLI/cF90FknqkHuBfS3+w2UDMGQJrqKcQ+2ISpKmbg5wQLMLq4bIBmAEEpyJxwdL0lRl4NAEP48O0kU2ACOS4FvAEdE5JKnFPpzguOgQXeUiwBHK5f09hnJ4kCRp4r6S4G3RIbrMBmDEMkynnBnwkugsktQSZ1D2+J8THaTLbADGIMPKwC+BraKzSFLlLgFemODB6CBd5xqAMUhwP7AX5QkBSdKiXUu58rf4j4ETgDHKsB5lEjAzOIok1eYmypX/DdFB+sIJwBgluBl4KXBrdBZJqsgdwEst/uPlBCBAhk2BXwBrRmeRpGB3A7snuCI6SN84AQjQ7Gj1MtwyWFK/PQDsY/GPYQMQJMFvgZcDD0dnkaQAjwL7J7ggOkhf2QAESnAu8Erg8egskjRGc4BXp7IoWkFsAIIlOB14DTYBkvrhceBVCU6NDtJ3LgKsRIbdgR8BK0ZnkaQReYRS/H8WHUQ2AFXJ8HzgFGDV6CySNGT3A/slOCc6iAobgMpk2JYyGls9OoskDcm9lNX+50UH0R/YAFQow2aUEdm60VkkaYpuB/ZOcGl0EP0xG4BK5bJd8GnAs4KjSNKgbgBekuB30UH0p3wKoFIJZgF7AtcER5GkQVxN2dvf4l8pG4CKJbiR8nSAozNJbXIJZXvfm6KDaPFsACqXyv2z3YCTo7NI0gT8DHhRKgf8qGI2AC2Q4CHgz4EvRmeRpCU4Bnh5Knv8q3I2AC2R4IkE7wTeCzwZnUeSFpCBIxIckmBudBhNjE8BtFCG1wLHAjOis0jqvdnA2xJ8PTqIJscGoKUy7Ar8AFgtOouk3rqXcqjPL6KDaPJsAFosw8bAT4BNorNI6p3rKFv7XhUdRINxDUCLNc/XvpByrLAkjcs5wM4W/3azAWi5BHcCewD/HhxFUj8cR9nd767oIJoabwF0SIY3AV8Alo/OIqlzZgPvTnBUdBANhw1AxzSnCX6XcpaAJA3DTcABCX4THUTD4y2AjklwEbAD8NPoLJI64QxgB4t/99gAdFCCe4B9gSNw0yBJg8nAP1Pu998ZHUbD5y2AjsuwP2XRzkrRWSS1xkPAWxOcGB1Eo2MD0AMZNgeOB7aOziKper8FDkrlOF91mLcAeiDBlcCOlHGetwQkLUqmPE68k8W/H5wA9EyGlwBfA9aJziKpGndQDvI5KTqIxscJQM+kclb3NsAPo7NIqsIpwDYW//6xAeihBHcleCXwZuCR6DySQjxGOV785Qlujw6j8fMWQM9l2IxyjOd20Vkkjc1lwBsSXBodRHGcAPRcc5jHrsCncYGg1HXzgH8Btrf4ywmAntJsI3wUTgOkLroUeHuCX0cHUR2cAOgpzTbCOwN/DzweHEfScDxO2RV0B4u/FuQEQIuUYWPgi8CLo7NIGthZwDuavUCkP+IEQIuU4HeUPQPeDNwbHEfS5DxAWeG/u8Vfi+MEQEuVYW3gP4DXRGeRtFQ/Bg5LcHN0ENXNCYCWKsFtCQ4AXosfKlKtbgRenWB/i78mwgZAE5bgO8CmlEWCDwfHkVQ8SjnnY8sE34sOo/bwFoAGkmFd4BPAX+D/R1KETGnKP5Dghugwah8/uDUluZwy+G/ALtFZpB65AHhvKqv8pYF4C0BTkuA3wG6UpwXcT1warduAvwR2tPhrqpwAaGgyrAgcTnn8aLngOFKXPA58Fvin5PobDYkNgIYuw/rA31KuVGwEpMHNBb4FfDzBddFh1C02ABqZDBsC/wAcAkwLjiO1yZPAicA/NJtySUNnA6CRy7AR5dHBtwHLBMeRaja/8H84wTXRYdRtNgAamwxbUBqBN+ICVGlBGfgJ8JEEF0eHUT/YAGjsmmOH/xHYD/8fVL9l4EfARxP8NjqM+sUPX4XJsDXwbuBNwIzgONI4zQGOB/4lwWXRYdRPNgAKl2FN4DDgPcCqwXGkUXoQ+CrwKffrVzQbAFUjwwrAG4D3A5sEx5GGaRbwBeALqRzVK4WzAVB1clkguB/lEcKdg+NIU3ERZavsbyR4IjqMtCAbAFUtw+7AXwGvApYNjiNNxGzg+8B/JzgzOoy0ODYAaoUMKwMHAu8CnhscR1qUq4FjgK8kuCs6jLQ0NgBqnQzbA++g7Cfw9OA46rfHKY/xfQk4LZXH+qRWsAFQa2V4BvA6ypkD2wXHUb9cARwLfDnBvdFhpEHYAKgTMuwAHAy8Flg7OI666Vbg28BxCS6IDiNNlQ2AOqV5gmBXSiNwILBWbCK13D3ASZTCf7Ir+dUlNgDqrIWagYMoGw5JS3Mf8GNK0T8llSN5pc6xAVAvZJgO7EVpBF4JrBKbSJW5l/Lo3gmUxXxe6avzbADUO7kcSbwN8BJgf2AXPJ2wj66grOD/GfALr/TVNzYA6r0MqwN7UJqB/fA8gq66FziNUvB/kuCW4DxSKBsAaQHNdGAnYF9gH8rjhU4H2ulJ4HzgFOBk4LwE82IjSfWwAZCWoDmgaBtgN+AFwAuBlUJDaXEepey9fxZwNnC2z+hLi2cDIE1CMyHYjD80BC8CNgwN1V+3U67w5xf881LZh1/SBNgASFOU4VmUhmA7YGvKWQWrh4bqnruAS5qvCylX99fHRpLazQZAGoFcHjPcknJuwRbNz7cFnhaZqwXmAtcCl1NW6V8AXJ7gutBUUgfZAEhjkmEasCmwVfPjTGCj5sf1KH+/D54AbgJmNV/XA9cAlwLX+Ay+NB42AFIFmuZgfUozMJM/NAYbAesCqwErxqSbtIeAuymP2V3ffM3iD8X+Zou8FM8GQGqJDMsCz1zoa3VKc7Dgry1H+d5euflXZwDLNz9fifJY43TKEw4AD1NG708CDzS/9hjlqFuA+8vLM5tS2O9pvu5e6K/vAe5JMGd4f2pJkiRJkiRJkiRJkiRJkiRJkiRJkiRJkiRJkiRJkiRJkiRJkiRJkiRJkiRJkiRJkiRJkiRJkiRJkiRJkiRJkiRJkiRJkiRJkiRJkiRJkiRJkiRJkiRJkiRJkiRJkiRJkiRF+v8SfTcyRwsg6QAAAABJRU5ErkJggg==;" vertex="1" parent="1">
          <mxGeometry x="542" y="217.42000000000002" width="18" height="18" as="geometry" />
        </mxCell>
      </root>
    </mxGraphModel>
  </diagram>
</mxfile>
